<?xml version="1.0" standalone="no"?>
<!DOCTYPE svg PUBLIC "-//W3C//DTD SVG 20010904//EN"
 "http://www.w3.org/TR/2001/REC-SVG-20010904/DTD/svg10.dtd">
<svg version="1.0" xmlns="http://www.w3.org/2000/svg"
 width="2048.000000pt" height="2048.000000pt" viewBox="0 0 2048.000000 2048.000000"
 preserveAspectRatio="xMidYMid meet">
<metadata>
Created by potrace 1.14, written by Peter Selinger 2001-2017
</metadata>
<g transform="translate(0.000000,2048.000000) scale(0.100000,-0.100000)"
fill="#000000" stroke="none">
<path d="M7780 20143 c-19 -186 -34 -349 -33 -363 0 -14 -4 -62 -8 -107 -10
-88 -30 -351 -34 -448 -2 -33 -7 -121 -11 -195 -10 -192 -10 -897 0 -1075 11
-188 13 -207 20 -280 3 -33 8 -87 11 -120 4 -33 8 -71 10 -85 2 -14 6 -52 10
-85 4 -33 9 -63 11 -67 3 -4 0 -8 -5 -8 -12 0 -7 -54 9 -110 9 -32 8 -37 -17
-55 -84 -61 -249 -215 -408 -381 -393 -410 -575 -548 -839 -636 -74 -25 -106
-30 -169 -29 -72 2 -217 -13 -262 -26 -19 -5 -19 -5 -2 14 19 22 22 39 8 48
-14 8 -244 -43 -316 -70 -34 -12 -81 -33 -106 -46 -24 -13 -50 -22 -57 -21
-22 5 -132 -89 -208 -178 -82 -94 -121 -158 -111 -184 6 -15 9 -15 36 -1 44
22 44 20 7 -33 -53 -74 -141 -226 -166 -288 -29 -72 -18 -88 37 -52 47 31 123
70 123 63 0 -2 -18 -28 -40 -57 -44 -57 -97 -160 -126 -245 -25 -70 -13 -83
47 -52 24 13 60 31 80 40 l35 16 -43 -86 c-70 -138 -91 -261 -45 -261 9 0 40
16 67 36 28 20 72 47 99 61 43 22 48 23 41 6 -53 -132 -60 -197 -24 -225 23
-20 46 -20 106 -2 l22 6 -20 -62 c-32 -102 -21 -132 37 -109 15 5 29 8 31 6 2
-2 -3 -62 -12 -133 -20 -175 -20 -195 5 -201 24 -6 24 -18 5 -120 -22 -115
-20 -133 13 -145 l29 -11 -18 -96 c-23 -124 -24 -157 -2 -170 16 -9 15 -24
-24 -213 -52 -249 -77 -340 -110 -397 -43 -74 -121 -235 -133 -279 -11 -35
-11 -45 3 -65 14 -21 14 -27 1 -45 -21 -31 -140 -396 -159 -489 -18 -93 -11
-123 29 -123 l24 0 -29 -75 c-45 -115 -54 -207 -34 -351 51 -380 52 -401 12
-589 -13 -64 -21 -136 -20 -200 0 -103 1 -107 72 -299 28 -74 30 -191 6 -346
-33 -219 -30 -378 12 -550 35 -142 65 -166 139 -110 21 16 41 30 44 30 3 0 6
-48 6 -108 2 -123 52 -388 110 -581 59 -192 75 -206 141 -121 21 27 40 49 43
49 3 1 19 -57 36 -127 17 -70 46 -162 63 -204 40 -96 127 -235 163 -261 l27
-20 82 27 c44 15 82 26 83 24 1 -2 13 -32 26 -68 98 -277 303 -513 517 -594
93 -35 147 -76 173 -128 11 -23 20 -47 20 -52 0 -14 98 -138 155 -196 45 -45
49 -58 47 -118 l-2 -34 -42 7 c-24 4 -50 15 -58 24 -8 9 -36 27 -62 41 -26 13
-50 30 -53 38 -3 7 -9 10 -15 7 -5 -3 -10 -1 -10 5 0 5 -26 22 -57 37 -32 15
-61 32 -65 38 -5 6 -8 6 -8 -2 0 -7 -6 -13 -14 -13 -8 0 -16 -4 -18 -10 -1 -5
-15 -11 -30 -12 -15 -1 -25 -5 -22 -9 2 -4 -9 -10 -26 -14 -16 -4 -30 -11 -30
-16 0 -6 -4 -7 -10 -4 -5 3 -11 1 -11 -4 -3 -26 -4 -30 -12 -37 -4 -4 -7 -18
-7 -31 0 -29 -30 -59 -54 -55 -10 2 -22 -2 -27 -9 -6 -10 -15 -10 -45 -1 -33
10 -41 9 -57 -6 -11 -9 -21 -16 -23 -14 -9 5 -27 2 -21 -5 10 -9 -41 -33 -70
-33 -21 0 -24 -4 -22 -38 2 -21 -1 -43 -5 -50 -4 -7 -2 -12 4 -12 17 0 95 -83
113 -119 14 -29 14 -32 -4 -44 -10 -8 -16 -17 -12 -20 16 -16 -32 -5 -77 18
-28 14 -77 28 -110 32 -33 3 -60 9 -60 13 0 10 -143 44 -184 45 -20 0 -31 -5
-34 -17 -2 -9 -24 -27 -48 -39 -24 -11 -44 -25 -44 -30 0 -5 -9 -9 -19 -9 -10
0 -22 -7 -25 -16 -3 -8 -10 -12 -16 -9 -5 3 -10 -1 -10 -9 0 -15 -12 -21 -34
-17 -5 1 -6 -5 -3 -14 4 -8 2 -15 -4 -15 -5 0 -30 -21 -54 -46 -24 -26 -48
-43 -54 -40 -14 9 -51 -11 -51 -29 0 -7 -5 -15 -12 -17 -23 -8 -8 -77 37 -166
24 -49 51 -94 59 -101 9 -8 16 -20 16 -28 0 -18 -78 -13 -90 7 -6 9 -21 11
-53 6 -28 -4 -48 -3 -52 4 -7 12 -55 13 -74 1 -8 -5 -11 -16 -6 -30 4 -13 1
-28 -6 -37 -7 -8 -14 -27 -15 -42 -2 -15 -6 -45 -10 -67 -4 -22 -7 -75 -8
-118 l-1 -77 -80 -31 c-165 -65 -378 -139 -396 -139 -10 0 -21 -5 -24 -10 -4
-6 -30 -9 -63 -6 -48 3 -59 1 -74 -17 -10 -11 -18 -24 -18 -28 0 -5 -39 -20
-87 -35 l-87 -26 -33 36 c-18 20 -40 36 -48 36 -8 0 -15 5 -15 11 0 8 -5 7
-15 -1 -10 -9 -33 -11 -70 -7 -37 4 -53 2 -49 -5 4 -6 -2 -6 -15 1 -17 10 -21
9 -21 -3 0 -17 -34 -39 -44 -29 -3 3 -6 1 -6 -5 0 -7 -9 -12 -20 -12 -11 0
-20 -7 -20 -15 0 -16 -39 -36 -53 -28 -12 7 -48 -8 -41 -18 3 -5 2 -9 -3 -8
-13 3 -63 -13 -63 -20 0 -6 -17 -10 -57 -13 -7 -1 -13 -5 -13 -9 0 -5 -11 -4
-25 1 -16 6 -25 6 -25 0 0 -5 -21 2 -46 15 -26 14 -58 25 -70 25 -15 0 -24 6
-24 15 0 8 -7 15 -15 15 -8 0 -15 -5 -15 -12 0 -9 -3 -9 -12 0 -7 7 -20 12
-30 12 -10 0 -18 5 -18 10 0 7 -7 7 -20 0 -11 -6 -25 -8 -30 -5 -6 3 -10 1
-10 -4 0 -15 -16 -14 -32 1 -15 15 -48 20 -48 8 0 -14 -72 -17 -77 -3 -6 16
-33 17 -33 1 0 -6 -3 -9 -6 -6 -3 4 -21 0 -40 -8 -27 -11 -34 -12 -34 -2 -1 7
-6 3 -13 -10 -8 -13 -17 -19 -22 -13 -11 10 -55 -4 -55 -17 0 -5 -11 -7 -25
-4 -15 2 -25 0 -25 -7 0 -7 -6 -11 -12 -10 -21 3 -48 -12 -41 -24 3 -5 1 -7
-4 -4 -22 14 -123 -103 -123 -142 0 -28 -31 -99 -37 -84 -5 13 -43 -14 -43
-31 0 -5 -16 -28 -35 -52 -19 -23 -35 -47 -35 -52 0 -5 -9 -12 -20 -15 -12 -3
-20 -14 -20 -26 0 -12 -3 -21 -8 -21 -4 0 -16 -16 -26 -35 -11 -20 -24 -34
-30 -32 -13 5 -35 -22 -36 -43 0 -8 -7 -28 -15 -44 -8 -15 -15 -35 -15 -42 0
-8 -4 -14 -10 -14 -5 0 -10 -5 -10 -11 0 -20 -41 -99 -51 -99 -6 0 -9 -6 -6
-14 3 -8 3 -17 0 -20 -3 -3 -7 -34 -9 -68 -1 -35 -16 -103 -32 -153 -16 -49
-35 -110 -42 -135 -13 -47 -50 -136 -75 -182 -8 -14 -15 -33 -15 -41 0 -9 -11
-29 -25 -45 -14 -16 -27 -45 -29 -63 -3 -19 -14 -53 -25 -76 -12 -23 -21 -49
-21 -57 0 -8 -11 -27 -25 -42 -14 -15 -25 -34 -25 -43 0 -10 -4 -21 -9 -26 -4
-6 -16 -35 -26 -65 -9 -30 -21 -63 -26 -72 -5 -10 -9 -25 -9 -33 0 -8 -4 -15
-9 -15 -10 0 -23 -31 -26 -60 -4 -39 -17 -80 -26 -80 -5 0 -9 -13 -9 -30 0
-16 -4 -30 -9 -30 -5 0 -11 -12 -14 -28 -3 -15 -13 -47 -22 -72 -10 -25 -19
-61 -21 -80 -3 -19 -8 -44 -13 -55 -5 -11 -15 -41 -22 -68 -8 -26 -16 -47 -20
-47 -8 0 -65 -178 -78 -246 -12 -62 -6 -180 13 -226 7 -18 11 -39 9 -45 -3 -9
7 -13 35 -13 37 0 39 -2 34 -25 -2 -14 -8 -28 -13 -31 -5 -3 -9 -18 -9 -35 0
-16 -5 -29 -11 -29 -7 0 -9 -10 -5 -25 4 -14 2 -25 -4 -25 -5 0 -10 -12 -10
-26 0 -14 -4 -23 -9 -19 -5 3 -12 -3 -16 -13 -9 -31 -13 -122 -5 -127 17 -10
-4 -154 -31 -209 -11 -22 -19 -45 -19 -51 0 -7 -11 -24 -25 -39 -14 -15 -25
-29 -25 -32 0 -2 -11 -22 -25 -44 -14 -22 -25 -47 -25 -57 0 -9 -7 -24 -16
-34 -9 -10 -18 -48 -23 -96 -4 -43 -14 -89 -20 -102 -7 -12 -14 -75 -17 -139
-2 -64 -7 -144 -10 -177 -4 -33 -7 -77 -9 -99 -1 -21 -8 -41 -14 -45 -6 -4
-14 -25 -18 -47 -3 -21 -9 -41 -12 -44 -4 -3 -12 -27 -19 -53 -7 -27 -19 -56
-27 -64 -8 -8 -15 -21 -15 -29 0 -8 -8 -22 -17 -32 -28 -28 -63 -80 -63 -92 0
-5 -4 -10 -10 -10 -5 0 -10 -7 -10 -15 0 -8 -6 -15 -14 -15 -8 0 -18 -9 -21
-21 -7 -21 -40 -59 -51 -59 -10 0 -34 -28 -34 -39 0 -6 -7 -11 -15 -11 -8 0
-15 -5 -15 -10 0 -6 -13 -24 -30 -42 -16 -17 -30 -37 -30 -44 0 -7 -8 -15 -19
-19 -10 -3 -27 -22 -37 -43 -10 -20 -24 -44 -30 -52 -6 -8 -18 -34 -27 -57
l-17 -43 1390 0 1389 0 11 38 c23 82 51 321 52 446 l2 133 31 -76 c68 -165
180 -359 274 -475 17 -21 31 -45 31 -52 0 -12 78 -14 459 -14 253 0 466 3 475
6 9 3 16 12 16 20 0 8 5 14 10 14 12 0 25 10 70 52 15 16 32 28 36 28 10 0 64
58 64 68 0 5 15 17 34 27 19 11 37 29 41 42 4 16 15 26 35 30 17 3 30 11 30
18 0 6 11 18 25 25 14 7 25 19 25 26 0 6 11 15 25 18 14 4 25 11 25 16 0 6 7
10 15 10 8 0 15 7 15 15 0 8 14 17 35 21 19 3 35 10 35 15 0 5 9 9 19 9 10 0
21 6 24 14 15 39 427 57 427 18 0 -10 9 -13 35 -10 19 2 35 1 35 -2 0 -4 14
-4 31 -2 28 4 30 2 24 -17 -5 -18 -2 -21 19 -21 14 0 26 -4 26 -9 0 -5 23 -12
50 -16 28 -4 50 -11 50 -16 0 -5 11 -9 25 -9 15 0 25 -6 25 -14 0 -10 16 -17
45 -22 25 -3 42 -10 39 -15 -3 -5 2 -9 10 -9 9 0 16 -4 16 -10 0 -5 9 -10 20
-10 11 0 20 -7 20 -15 0 -8 9 -15 19 -15 11 0 26 -7 35 -15 8 -8 22 -15 30
-15 9 0 16 -7 16 -15 0 -8 14 -17 35 -21 19 -3 32 -10 29 -15 -3 -5 1 -9 8 -9
7 0 22 -11 32 -25 10 -14 23 -25 28 -25 6 0 23 -14 38 -30 15 -16 32 -30 37
-30 5 0 15 -9 23 -21 45 -64 6 -59 456 -59 l410 0 14 48 c8 26 13 62 11 80 -1
18 2 38 7 45 5 7 15 63 22 126 6 62 19 129 27 149 8 20 17 50 19 67 2 16 6 41
10 55 3 14 7 49 9 79 2 29 11 64 20 77 8 13 15 32 15 43 0 22 31 81 43 81 4 0
7 9 7 20 0 25 27 92 40 100 13 8 22 68 10 75 -15 9 -12 20 15 49 19 21 28 45
36 102 5 41 7 84 4 94 -4 11 -1 36 5 56 9 27 9 42 1 58 -7 14 -9 49 -3 109 4
48 5 91 1 95 -12 11 -18 145 -9 192 4 23 13 45 19 49 6 4 13 32 15 61 6 89 21
140 65 227 19 39 33 54 53 59 16 3 28 12 28 20 0 9 11 14 34 14 19 0 36 6 39
13 2 6 7 9 11 5 4 -3 3 -15 -2 -25 -5 -10 -12 -49 -16 -88 -7 -87 -22 -142
-42 -153 -10 -5 -16 -29 -19 -72 -2 -36 -9 -66 -15 -68 -5 -2 -10 -10 -10 -18
0 -8 -5 -23 -12 -33 -8 -13 -8 -32 -1 -71 6 -31 7 -67 2 -88 -5 -21 -9 -73 -9
-117 0 -44 -4 -86 -9 -94 -6 -9 -4 -19 5 -29 9 -8 13 -21 10 -28 -4 -10 3 -14
24 -14 17 0 30 -4 30 -9 0 -5 18 -28 40 -52 22 -24 40 -50 40 -56 0 -7 3 -13
8 -13 12 0 45 -67 38 -79 -4 -5 9 -26 28 -45 23 -24 37 -50 41 -78 4 -23 11
-49 15 -58 35 -72 47 -239 22 -287 -6 -11 -9 -23 -6 -26 3 -2 -7 -14 -21 -25
-15 -12 -24 -26 -20 -32 3 -5 1 -10 -5 -10 -7 0 -10 -6 -8 -12 7 -21 -18 -38
-66 -44 -29 -4 -46 -12 -46 -20 0 -10 -14 -14 -50 -14 -27 0 -50 -4 -50 -10 0
-5 -15 -10 -33 -10 -21 0 -38 -7 -47 -20 -8 -11 -18 -20 -21 -20 -4 0 -21 -14
-38 -31 -28 -28 -56 -101 -44 -113 3 -3 -2 -23 -11 -46 -9 -22 -16 -54 -16
-70 0 -17 -4 -30 -9 -30 -4 0 -12 -31 -18 -70 l-9 -70 3809 0 3809 0 87 87
c47 49 113 127 145 175 33 49 64 84 70 81 36 -23 196 -181 196 -194 0 -5 4 -9
9 -9 4 0 14 -26 21 -59 7 -32 15 -63 19 -70 5 -8 394 -10 1504 -9 l1496 3 -19
40 c-10 22 -33 72 -50 110 -18 39 -53 113 -79 165 -25 52 -46 100 -46 105 -1
11 -66 147 -75 155 -3 3 -14 23 -25 45 -11 22 -23 42 -26 45 -14 13 -50 101
-44 110 3 5 1 10 -4 10 -6 0 -11 6 -11 14 0 8 -6 21 -14 28 -7 8 -17 25 -21
38 -4 14 -18 41 -31 61 -12 20 -28 55 -35 77 -7 23 -16 42 -21 42 -4 0 -8 5
-8 12 0 15 -41 101 -52 108 -4 3 -9 15 -12 25 -9 41 -19 65 -27 65 -5 0 -9 7
-9 15 0 8 -4 15 -10 15 -5 0 -10 7 -10 15 0 7 -6 18 -13 22 -19 12 -66 78 -78
110 -10 26 -27 102 -33 148 -2 11 -6 30 -10 43 -5 14 -3 22 4 22 6 0 9 4 5 9
-4 8 -19 73 -30 136 -12 68 -35 154 -49 180 -9 17 -16 44 -16 60 0 17 -9 47
-20 68 -11 20 -20 44 -20 52 0 8 -4 15 -10 15 -5 0 -12 16 -16 35 -3 19 -10
35 -14 35 -4 0 -13 20 -19 44 -6 25 -15 48 -21 51 -5 3 -10 14 -10 23 0 9 -7
29 -14 45 -14 26 -14 27 10 27 48 0 72 49 76 148 2 58 -23 157 -44 172 -4 3
-21 32 -38 65 -17 33 -42 74 -56 92 -13 17 -24 38 -24 46 0 9 -3 17 -7 19 -23
10 -52 74 -73 158 -13 52 -23 101 -23 110 1 34 -21 116 -42 156 -12 23 -25 55
-29 70 -4 16 -18 54 -32 84 -15 30 -32 69 -39 85 -54 125 -59 134 -130 220
-14 17 -37 45 -51 63 -14 17 -30 32 -35 32 -16 0 -88 71 -104 102 -21 42 -32
162 -39 403 -2 68 -8 93 -41 165 -21 47 -44 89 -51 93 -8 4 -14 17 -14 28 0
11 -9 29 -20 41 -11 12 -20 33 -20 46 0 26 -59 130 -86 153 -9 7 -23 30 -31
51 -8 21 -19 38 -23 38 -5 0 -16 18 -26 40 -10 22 -27 43 -38 46 -12 4 -26 14
-33 23 -9 12 -12 13 -13 2 0 -7 -6 -11 -15 -7 -8 3 -15 1 -15 -4 0 -6 -7 -10
-15 -10 -8 0 -15 -4 -15 -10 0 -17 -57 -12 -64 6 -3 9 -6 49 -6 90 0 88 -18
167 -37 160 -7 -3 -13 -2 -13 2 0 19 -43 53 -61 49 -11 -3 -25 1 -33 8 -7 8
-25 17 -40 21 -14 3 -26 10 -26 15 0 5 -6 6 -14 3 -8 -3 -17 -1 -21 5 -13 22
-107 5 -127 -23 -4 -6 -45 -11 -93 -11 -51 -1 -90 -6 -97 -13 -17 -17 -48 -15
-48 4 0 12 -6 15 -24 10 -21 -5 -25 0 -46 57 -13 34 -23 79 -22 99 1 28 -3 38
-18 43 -11 3 -24 4 -28 1 -5 -3 -21 2 -36 10 -16 7 -35 14 -42 14 -8 0 -17 7
-20 15 -4 8 -18 15 -34 15 -16 0 -30 7 -34 15 -3 8 -15 15 -26 15 -11 0 -20 4
-20 9 0 14 -58 31 -106 31 -25 0 -44 5 -44 11 0 7 -14 8 -40 4 -31 -5 -41 -3
-46 8 -5 14 -54 19 -54 5 0 -3 -13 -9 -30 -13 -16 -4 -30 -11 -30 -16 0 -5 -9
-9 -20 -9 -11 0 -20 -4 -20 -10 0 -5 -7 -10 -15 -10 -8 0 -15 -3 -15 -8 0 -8
-12 -15 -79 -47 -22 -11 -41 -23 -41 -27 0 -4 -16 -4 -35 -1 -24 4 -35 2 -35
-6 0 -7 -4 -10 -9 -7 -4 3 -21 1 -37 -3 -16 -5 -47 -15 -68 -21 -35 -11 -41
-10 -52 5 -7 9 -10 23 -7 31 3 8 0 14 -6 14 -6 0 -9 25 -6 70 2 39 0 70 -4 70
-5 0 -12 11 -15 25 -4 14 -10 24 -14 24 -19 -3 -32 2 -32 14 -1 34 -74 57
-150 46 -33 -5 -59 2 -76 18 -11 12 -34 17 -70 17 -30 1 -54 5 -54 10 0 4 -9
6 -20 3 -11 -3 -27 1 -34 9 -8 8 -22 14 -30 14 -9 0 -16 5 -16 10 0 6 -12 10
-26 10 -14 0 -23 4 -19 9 3 5 -4 12 -15 16 -22 7 -26 20 -9 30 11 8 9 54 -3
71 -5 7 -8 16 -7 20 4 23 -2 77 -7 71 -4 -4 -15 3 -25 14 -9 11 -27 21 -38 22
-12 1 -21 5 -21 9 0 19 -2 23 -15 31 -10 5 -12 21 -8 60 3 28 9 54 13 57 4 3
13 30 19 60 11 50 10 57 -14 103 -14 27 -25 57 -25 66 0 10 -9 28 -20 41 -11
13 -20 26 -20 30 0 8 -43 23 -75 26 -11 1 -25 2 -32 3 -7 0 -20 17 -29 36 -9
19 -20 35 -25 35 -5 0 -7 11 -3 24 6 26 -28 116 -44 116 -9 0 -71 51 -114 92
-10 10 -30 21 -45 24 -16 4 -36 17 -47 28 -10 12 -22 20 -27 19 -5 -2 -9 6 -9
18 0 11 -4 17 -10 14 -6 -4 -27 6 -47 21 -27 20 -48 27 -84 28 -27 1 -49 4
-49 8 0 4 -7 5 -15 2 -8 -4 -22 -1 -30 6 -9 8 -29 10 -50 7 -20 -3 -33 -2 -30
3 3 5 -15 7 -40 5 -25 -1 -45 1 -45 5 0 4 -18 7 -40 6 -22 -1 -40 2 -40 6 0 5
-16 6 -35 2 -27 -5 -36 -3 -41 10 -3 9 -10 13 -15 10 -5 -3 -9 2 -9 10 0 9 -4
16 -9 16 -8 0 -5 61 4 87 8 24 -82 57 -168 62 -5 1 -5 6 -1 12 4 7 1 10 -7 7
-8 -3 -31 3 -51 13 -21 11 -46 19 -58 19 -11 0 -20 3 -20 8 0 4 -12 13 -27 19
-21 10 -29 10 -42 0 -12 -9 -13 -9 -7 1 5 8 -1 12 -19 12 -16 0 -24 4 -20 10
4 7 -2 9 -17 5 -43 -10 -108 -11 -108 -2 0 5 -7 7 -15 3 -8 -3 -37 -8 -63 -12
-26 -3 -50 -8 -54 -11 -5 -2 -8 1 -8 7 0 8 -9 10 -25 6 -34 -9 -106 4 -98 17
4 6 0 8 -10 4 -11 -4 -22 2 -32 16 -8 12 -15 18 -15 14 0 -13 -38 31 -45 53
-4 13 -12 19 -21 16 -9 -3 -12 -1 -9 4 3 6 -1 13 -9 16 -9 3 -16 12 -16 20 0
8 -7 14 -16 14 -8 0 -12 5 -9 10 8 12 -18 40 -37 40 -8 0 -19 5 -26 12 -9 9
-12 9 -12 0 0 -7 -13 -12 -29 -12 -36 0 -91 -19 -91 -31 0 -6 -11 -20 -25 -33
-14 -13 -25 -28 -25 -34 0 -5 -7 -13 -16 -16 -9 -3 -14 -12 -11 -19 3 -8 -4
-19 -14 -26 -11 -6 -24 -23 -29 -36 -5 -14 -17 -25 -26 -25 -12 0 -15 9 -14
38 1 20 1 39 0 42 0 3 -3 25 -6 50 -5 47 -11 81 -14 90 -1 3 -2 8 -1 13 0 4
-3 7 -8 7 -5 0 -12 11 -15 24 -6 24 -75 66 -108 66 -23 0 -28 30 -28 180 0
124 24 498 34 545 3 11 14 126 26 255 23 256 34 332 80 549 59 277 128 515
184 636 8 17 26 61 40 99 26 69 102 209 162 299 l32 49 30 -44 c77 -110 164
-160 293 -166 97 -5 152 9 253 62 90 47 150 111 199 213 70 145 133 255 202
349 302 414 457 678 521 889 25 82 28 104 27 250 0 95 -6 202 -16 265 -9 58
-25 166 -37 240 -11 77 -24 241 -30 380 -13 294 -28 408 -74 545 -72 215 -152
332 -266 390 -56 29 -162 55 -222 55 -32 0 -38 4 -38 21 0 45 -82 262 -153
404 -103 208 -108 226 -105 376 l3 124 -81 120 c-45 66 -114 161 -154 210 -40
50 -79 106 -88 125 -10 25 -15 79 -16 195 -2 151 -3 163 -28 218 -32 68 -105
142 -184 188 -77 44 -121 84 -133 122 -5 18 -17 74 -26 126 -28 169 -68 225
-240 336 l-86 56 6 52 c19 164 20 176 31 382 13 239 7 714 -11 915 -2 30 -7
84 -11 120 -3 36 -7 90 -9 120 -5 70 -11 124 -26 230 -6 47 -13 99 -14 115 -6
78 -17 153 -25 185 -5 19 -8 42 -7 50 2 15 -10 85 -38 240 -7 41 -13 82 -13
90 1 8 -7 53 -16 100 -10 47 -20 103 -22 125 -4 44 -47 252 -96 465 -17 74
-65 257 -106 405 -41 149 -75 280 -74 293 2 21 -2 22 -67 22 l-69 0 4 -47 c3
-27 11 -73 19 -103 37 -142 165 -725 165 -748 0 -15 14 -90 31 -167 17 -77 32
-155 33 -175 3 -35 23 -155 52 -307 8 -45 17 -104 19 -130 3 -26 9 -63 14 -82
6 -19 8 -38 5 -42 -3 -5 0 -26 5 -46 9 -34 16 -86 27 -193 1 -19 8 -73 14
-120 14 -103 17 -126 24 -210 3 -36 8 -85 11 -110 9 -82 16 -154 21 -240 3
-47 7 -116 10 -155 8 -95 11 -800 4 -850 l-5 -39 -38 76 c-41 84 -105 149
-180 185 -23 11 -83 39 -132 63 -59 27 -91 48 -91 59 -1 18 -15 183 -19 221
-2 14 -6 52 -10 85 -3 33 -13 103 -21 155 -8 52 -16 106 -18 120 -8 50 -17
106 -27 165 -6 33 -12 74 -14 92 -2 18 -6 36 -9 41 -2 4 -7 30 -11 56 -3 27
-8 53 -11 58 -3 5 -8 31 -10 56 -3 26 -9 62 -15 80 -6 18 -9 36 -6 38 3 3 -1
29 -9 58 -7 29 -16 69 -18 89 -3 20 -10 55 -16 79 -7 23 -13 56 -15 73 -1 16
-10 59 -20 95 -9 36 -18 81 -20 100 -2 19 -15 80 -29 135 -14 55 -26 110 -26
123 0 13 -17 96 -38 185 -22 89 -39 171 -40 182 -1 24 -103 420 -173 666 -27
96 -49 184 -49 195 0 10 -15 66 -33 124 l-33 105 -82 3 -81 3 16 -53 c8 -29
17 -67 18 -84 2 -17 67 -257 145 -534 77 -276 139 -504 136 -507 -2 -2 0 -19
5 -36 31 -103 87 -314 87 -327 0 -8 12 -62 27 -120 15 -58 27 -112 27 -120 0
-8 11 -55 25 -104 13 -48 22 -90 20 -93 -3 -2 4 -32 14 -66 10 -34 21 -80 24
-102 2 -22 11 -61 19 -87 7 -26 12 -49 10 -51 -3 -2 2 -30 11 -62 8 -32 12
-61 10 -65 -3 -5 -1 -20 5 -35 6 -15 13 -47 16 -73 3 -25 7 -49 9 -52 2 -3 6
-28 10 -54 3 -27 8 -52 10 -56 3 -5 8 -30 11 -57 3 -26 7 -59 9 -73 2 -14 6
-41 9 -60 2 -19 9 -64 15 -100 6 -36 13 -90 16 -120 3 -30 8 -68 10 -85 3 -16
7 -57 11 -90 3 -33 8 -63 11 -67 9 -15 -13 -7 -52 20 -39 27 -40 30 -37 78 3
38 -1 53 -15 66 -32 29 -103 55 -253 93 -219 55 -410 139 -410 179 0 32 -26
63 -64 76 -23 7 -36 19 -40 35 -6 24 -23 230 -32 390 -2 44 -11 133 -20 198
-8 65 -12 121 -10 126 3 4 -4 80 -14 167 -11 87 -25 215 -30 284 -5 69 -38
364 -73 655 -36 292 -64 539 -64 550 1 11 -10 109 -23 218 l-24 197 -78 0
c-43 0 -78 -4 -78 -8 0 -4 14 -118 31 -253 16 -134 30 -266 31 -294 0 -27 29
-311 65 -630 36 -319 66 -616 69 -660 2 -44 12 -152 24 -240 11 -88 20 -184
20 -213 0 -29 6 -110 14 -180 8 -70 17 -165 20 -211 l6 -84 -61 7 c-132 15
-289 26 -382 26 l-98 0 5 53 c3 28 8 147 11 262 3 116 13 444 21 730 8 286 17
784 21 1108 l6 587 -66 0 -65 0 -6 -62 c-7 -88 -30 -1743 -31 -2255 l0 -422
-80 -5 c-342 -23 -533 -44 -747 -82 l-36 -6 -6 63 c-3 35 -5 82 -4 104 1 22
-3 159 -8 305 -11 337 -11 1365 0 1928 l9 432 -70 0 -70 0 -7 -497 c-13 -842
-8 -1852 9 -2003 2 -25 7 -117 10 -206 l5 -160 -97 -28 c-151 -42 -370 -129
-560 -222 -95 -46 -180 -84 -189 -84 -15 0 -16 15 -10 178 8 219 13 298 30
447 3 22 8 67 11 100 3 33 8 74 10 90 2 17 6 48 9 70 3 22 10 72 16 110 6 39
12 81 14 95 2 14 9 59 16 100 7 41 14 86 15 100 4 35 24 144 41 217 8 34 14
75 14 90 0 15 9 60 19 100 10 40 17 74 14 77 -2 2 8 50 22 105 15 56 28 114
29 129 3 35 51 241 180 770 l104 423 -91 -3 -91 -3 -77 -335 c-43 -184 -83
-364 -89 -400 -6 -36 -27 -139 -47 -230 -20 -90 -36 -171 -36 -180 1 -8 -10
-61 -23 -118 -14 -56 -23 -106 -20 -111 3 -4 -1 -32 -9 -62 -8 -30 -18 -81
-21 -114 -3 -33 -8 -63 -10 -67 -2 -3 -9 -39 -14 -77 -6 -39 -15 -104 -21
-143 -6 -40 -13 -86 -14 -103 -2 -16 -8 -64 -15 -105 -6 -41 -13 -93 -15 -115
-3 -22 -7 -58 -9 -80 -6 -53 -17 -176 -21 -248 -6 -95 -15 -78 -16 29 -4 397
2 665 26 1104 3 63 10 146 15 184 5 39 7 73 4 77 -2 4 5 84 16 179 11 94 18
175 16 179 -3 4 13 162 34 352 22 189 40 354 40 367 0 21 -4 22 -83 22 l-83 0
-34 -337z m2107 -220 c-1 -82 -3 -15 -3 147 0 162 2 229 3 148 2 -82 2 -214 0
-295z m-512 -2658 c28 -4 115 -22 193 -41 79 -19 153 -32 164 -28 49 15 183 6
256 -19 41 -14 82 -23 92 -20 19 5 32 30 34 68 2 28 30 23 123 -20 42 -19 81
-35 88 -35 12 0 25 -109 28 -239 l2 -65 -50 -13 c-27 -7 -64 -16 -82 -18 -61
-9 -188 -89 -255 -160 -15 -16 -37 -58 -47 -92 -19 -58 -19 -65 -4 -118 13
-45 29 -71 75 -118 32 -34 58 -65 58 -69 0 -5 4 -8 8 -8 5 0 17 -7 28 -15 17
-13 11 -14 -65 -15 l-84 0 -42 44 c-24 24 -49 65 -59 91 -28 85 -59 101 -133
70 -53 -22 -71 -19 -109 21 -32 35 -36 36 -86 32 -47 -5 -56 -10 -93 -53 l-41
-47 -37 18 c-49 24 -79 9 -106 -50 -21 -48 -49 -64 -95 -52 -37 9 -83 -12
-107 -50 -24 -40 -63 -69 -79 -59 -6 3 -25 2 -43 -4 -23 -8 -39 -24 -57 -58
-25 -47 -26 -48 -82 -54 -72 -8 -117 -40 -159 -113 -16 -29 -38 -61 -50 -72
-18 -16 -24 -17 -52 -5 -66 28 -86 22 -131 -43 -23 -33 -52 -66 -65 -75 l-24
-16 5 80 c3 44 15 105 27 135 25 65 24 60 7 60 -22 0 -86 -169 -128 -337 -62
-252 19 -777 164 -1068 37 -73 129 -215 140 -215 14 0 9 19 -16 58 l-23 37 71
0 c94 0 132 19 329 170 261 197 367 271 472 329 212 116 344 151 522 140 l112
-7 37 37 c20 20 40 36 45 36 5 0 38 -10 74 -21 61 -20 66 -21 90 -5 27 18 34
61 15 97 -13 23 -13 23 41 4 51 -18 84 -13 99 15 6 11 15 56 20 101 5 44 12
85 16 91 4 6 25 -10 54 -41 33 -36 54 -51 73 -51 39 0 52 31 37 87 -6 25 -9
47 -7 49 2 2 38 -25 79 -61 79 -67 160 -174 183 -241 20 -58 39 -50 43 16 5
78 -10 116 -82 217 -100 139 -109 165 -86 243 16 52 -4 113 -49 152 -47 40
-55 56 -41 73 8 10 8 18 0 32 -9 14 -8 31 2 73 13 48 20 58 59 83 25 15 55 29
67 32 36 7 158 92 197 138 19 22 41 59 47 82 6 22 15 45 20 51 4 6 6 40 4 75
-9 135 -56 223 -151 279 -22 13 -42 27 -45 31 -8 11 -90 36 -142 44 l-47 7 -1
82 c-2 103 -1 128 5 134 2 2 47 -23 100 -57 130 -84 160 -97 190 -77 13 9 26
25 30 36 3 11 11 20 16 20 25 0 85 -41 223 -153 184 -148 228 -175 267 -160
16 6 30 8 30 5 6 -27 12 -353 10 -500 -1 -52 -2 -53 -38 -69 -45 -18 -113 -84
-114 -110 -4 -72 16 -98 86 -108 57 -9 104 7 155 54 36 33 42 44 45 89 4 44 2
53 -17 67 -13 8 -31 15 -41 15 -20 0 -20 -3 -2 190 6 60 18 285 18 337 0 50
21 44 25 -7 3 -36 51 -162 66 -172 6 -4 6 -15 -2 -33 -37 -80 -2 -137 203
-338 85 -84 155 -155 155 -158 0 -3 -30 -18 -68 -32 -122 -48 -179 -114 -168
-194 13 -95 166 -334 322 -502 55 -60 55 -61 32 -70 -116 -44 -148 -74 -148
-138 0 -65 47 -158 193 -384 70 -108 127 -201 127 -206 0 -6 -23 -13 -51 -17
-38 -5 -59 -15 -80 -36 -52 -51 -38 -123 68 -360 85 -188 98 -224 79 -217 -37
15 -86 18 -105 8 -27 -15 -28 -63 -2 -129 24 -60 51 -188 51 -239 l0 -37 -62
60 c-87 84 -97 91 -449 279 -149 80 -318 194 -393 264 -67 63 -72 76 46 -124
36 -60 77 -132 93 -160 l28 -50 -55 53 c-51 50 -80 63 -93 42 -3 -5 12 -45 34
-88 81 -161 96 -244 66 -370 -17 -73 -34 -108 -85 -177 -20 -27 -42 -63 -48
-80 -18 -47 -110 -503 -123 -607 -18 -149 -6 -333 37 -538 39 -189 47 -311 25
-389 -7 -24 -41 -103 -76 -175 -89 -183 -103 -264 -130 -736 -9 -151 -20 -302
-26 -335 -20 -115 -66 -175 -134 -175 -36 0 -86 -23 -112 -51 -35 -38 -73
-123 -133 -295 -31 -89 -70 -181 -86 -205 -36 -54 -98 -102 -161 -124 -134
-49 -154 -63 -283 -194 l-125 -128 -93 -21 c-52 -12 -107 -31 -124 -43 -17
-12 -59 -66 -94 -120 -83 -129 -91 -133 -203 -125 -141 11 -179 -11 -266 -159
-62 -104 -81 -125 -121 -128 -16 -1 -32 -6 -36 -11 -3 -5 -18 -2 -33 8 -78 51
-119 41 -263 -67 -116 -87 -174 -123 -214 -132 -22 -6 -34 0 -69 34 -71 68
-102 58 -179 -59 -30 -46 -66 -88 -82 -96 -27 -14 -33 -14 -69 5 -21 12 -57
31 -79 42 -28 15 -79 26 -163 35 -197 23 -260 47 -427 162 -52 36 -99 69 -104
73 -5 5 8 27 30 51 22 24 64 86 93 138 168 299 382 564 536 662 132 85 410
210 462 207 49 -3 266 12 333 22 83 12 216 57 255 85 17 12 65 40 108 63 44
22 100 57 125 77 81 65 75 63 67 16 -5 -33 -4 -42 8 -42 21 0 40 53 32 89 -10
45 -45 41 -102 -9 -43 -38 -144 -102 -151 -96 -1 2 7 25 19 52 127 292 78 746
-112 1026 -44 64 -45 86 -3 47 41 -37 89 -117 114 -189 25 -72 36 -90 55 -90
19 0 31 170 15 213 -58 156 -136 241 -274 301 -147 63 -217 76 -400 76 -327
-1 -434 -31 -696 -195 -47 -30 -105 -59 -130 -65 -81 -22 -264 4 -535 75 -215
56 -296 68 -450 68 -229 -1 -332 -32 -456 -135 -70 -57 -101 -115 -106 -193
-6 -87 -3 -189 6 -221 13 -45 81 -182 97 -195 27 -22 27 0 2 58 -40 91 -49
127 -50 201 0 54 5 81 22 116 33 65 46 65 44 -3 -2 -139 49 -431 103 -584 51
-147 128 -269 232 -372 28 -27 51 -53 51 -57 0 -4 -33 -24 -72 -44 -185 -92
-377 -253 -431 -359 -60 -121 -67 -228 -20 -335 87 -200 236 -352 467 -476
l59 -32 -59 -22 c-45 -16 -74 -21 -121 -18 -77 5 -108 26 -144 96 -50 100 -74
110 -159 67 -27 -14 -61 -25 -74 -25 -82 0 -169 173 -232 463 -15 67 -31 127
-36 134 -14 18 -36 5 -62 -39 l-23 -39 -21 78 c-36 131 -49 207 -86 484 -36
262 -57 358 -79 360 -7 0 -25 2 -42 2 -29 2 -31 5 -53 92 -39 156 -80 375 -96
515 -16 146 -20 411 -20 1440 -1 692 -3 663 78 931 72 238 121 549 90 575 -11
9 -9 32 13 132 29 132 26 152 -23 152 -20 0 -23 4 -19 23 3 12 14 69 25 126
20 106 17 131 -16 131 -17 0 -17 -1 1 130 27 194 21 219 -45 200 -28 -8 -31
-7 -25 8 3 9 11 38 17 64 11 44 12 46 42 42 25 -4 41 3 81 33 28 21 71 53 98
71 l47 33 0 -25 c0 -25 23 -56 41 -56 14 0 87 38 134 70 22 15 69 43 105 63
l66 36 11 -29 c19 -50 46 -48 203 15 230 92 217 89 232 57 18 -37 38 -38 114
-8 35 14 96 35 135 46 l70 19 -6 -28 c-4 -20 -1 -34 10 -45 20 -20 15 -21 108
9 104 33 109 33 102 -9 -11 -55 6 -73 91 -98 55 -16 87 -32 121 -62 l45 -40
-6 -73 c-4 -43 -3 -73 2 -73 15 0 22 39 22 135 0 109 -15 207 -74 476 -56 255
-76 390 -76 511 0 109 21 244 51 327 31 87 32 91 21 91 -6 0 -35 -47 -66 -104
-55 -103 -97 -224 -112 -321 l-7 -50 -19 70 c-11 40 -20 108 -21 158 -1 85 -2
87 -25 87 -28 0 -103 -36 -167 -80 -25 -17 -45 -28 -45 -25 0 11 33 70 57 102
14 18 22 37 18 43 -4 6 -51 10 -118 10 -76 0 -107 3 -97 10 8 5 25 10 38 10
42 0 23 28 -35 50 -63 23 -189 55 -268 66 -50 7 -50 7 -17 16 32 8 44 32 20
40 -7 3 30 13 82 23 255 48 435 139 691 346 54 44 153 120 221 169 115 83 123
88 131 68 4 -12 15 -27 24 -33 17 -13 14 -17 -32 -40 -11 -6 -28 -27 -38 -48
-17 -36 -17 -39 4 -87 42 -98 182 -201 344 -253 61 -20 282 -39 306 -27 9 5
31 12 49 15 19 3 45 12 59 19 14 8 53 25 85 39 90 39 161 107 173 167 24 118
-156 261 -357 285 -81 10 -119 23 -118 43 0 9 -3 46 -7 82 -4 36 -8 85 -9 109
l-2 44 142 69 c77 37 144 68 148 68 3 0 6 -12 6 -26 0 -33 41 -87 88 -115 65
-40 78 -46 118 -53 21 -4 61 -15 88 -23 60 -20 287 -12 374 13 84 24 220 92
233 116 8 14 9 54 4 125 l-7 104 24 -5 c12 -3 46 -8 73 -11z m-117 -40 c-3 -3
-9 2 -12 12 -6 14 -5 15 5 6 7 -7 10 -15 7 -18z m1196 -67 c3 -24 9 -96 11
-160 l6 -118 -25 0 c-13 0 -31 -3 -40 -6 -10 -4 -15 0 -14 13 0 10 -5 76 -10
148 -10 115 -9 132 5 147 9 10 26 18 38 18 19 0 24 -7 29 -42z m-2403 -190 c6
-78 10 -107 15 -128 3 -14 8 -40 10 -57 l4 -33 -55 0 c-30 0 -55 2 -55 4 0 2
-5 28 -11 57 -23 114 -24 111 29 141 54 31 62 33 63 16z m-245 -221 c-66 -10
-145 -24 -176 -33 -38 -10 -17 7 95 79 l100 64 15 -51 16 -51 -50 -8z m-18
-232 c-3 -3 -9 2 -12 12 -6 14 -5 15 5 6 7 -7 10 -15 7 -18z m-1008 -315 c-24
-15 -36 -11 -14 4 10 8 21 12 24 10 2 -3 -2 -9 -10 -14z m3528 -61 c34 -11 62
-23 62 -26 0 -8 -135 2 -148 11 -14 8 -4 36 12 36 7 0 40 -9 74 -21z m178 -94
c5 -5 13 -18 17 -29 6 -15 4 -17 -15 -12 -13 3 -38 6 -57 6 l-34 0 21 23 c12
13 22 29 22 36 0 13 13 6 46 -24z m3145 -2183 c85 -41 155 -115 208 -220 91
-181 117 -311 131 -646 10 -231 21 -334 59 -551 96 -544 43 -710 -463 -1425
-194 -276 -280 -349 -430 -366 -190 -23 -382 130 -592 469 -109 176 -162 300
-199 471 -3 15 -8 26 -11 23 -11 -11 17 -260 42 -379 14 -68 28 -136 31 -153
21 -139 85 -365 141 -495 l19 -45 -43 -55 c-54 -70 -146 -222 -180 -297 -177
-395 -267 -748 -314 -1233 -11 -118 -24 -251 -30 -295 -18 -154 -40 -504 -40
-637 0 -77 6 -169 15 -218 8 -47 15 -133 15 -192 0 -95 -3 -115 -30 -181 -24
-61 -30 -90 -30 -149 1 -40 7 -90 15 -112 7 -21 11 -44 9 -51 -7 -18 22 -72
62 -117 35 -39 100 -158 86 -158 -14 0 -92 73 -92 87 0 7 -5 13 -10 13 -6 0
-20 12 -33 26 -22 26 -80 56 -169 89 -51 19 -81 15 -72 -9 3 -8 0 -25 -7 -38
-25 -48 -39 -54 -134 -56 -107 -2 -169 -13 -194 -36 -9 -9 -30 -16 -45 -16
-24 0 -79 -23 -96 -40 -3 -3 -12 -6 -20 -8 -8 -2 -16 -8 -18 -13 -2 -5 -8 -9
-13 -9 -10 0 -61 -43 -88 -72 -8 -10 -21 -18 -28 -18 -7 0 -13 -4 -13 -10 0
-5 -12 -16 -27 -24 -16 -8 -24 -15 -19 -16 5 0 -5 -14 -23 -31 -22 -20 -30
-36 -26 -49 9 -28 8 -106 -1 -121 -9 -15 -10 -20 -12 -56 -1 -13 -8 -23 -15
-23 -7 0 -17 -10 -22 -22 -6 -13 -17 -21 -25 -19 -8 2 -43 5 -78 6 -34 1 -66
5 -69 9 -3 3 -19 6 -34 6 -15 0 -29 5 -31 11 -2 7 -12 7 -30 0 -22 -8 -36 -5
-73 14 -26 13 -57 22 -68 19 -12 -2 -24 0 -27 5 -7 12 -173 -19 -185 -35 -15
-18 -81 -33 -120 -27 -21 3 -35 1 -35 -4 0 -13 -60 -39 -78 -35 -7 2 -12 -3
-11 -10 1 -7 -4 -26 -11 -43 -7 -16 -15 -53 -17 -81 -7 -70 16 -115 83 -165
66 -49 78 -86 46 -146 -15 -27 -16 -63 -1 -63 6 0 8 -9 4 -20 -11 -33 45 -136
129 -240 42 -52 85 -114 97 -137 30 -62 39 -133 21 -177 l-14 -36 -52 6 c-28
3 -56 13 -62 20 -6 8 -16 14 -21 14 -6 0 -18 16 -27 35 -15 32 -26 40 -48 36
-5 0 -8 8 -8 19 0 28 -46 117 -66 128 -9 5 -15 13 -15 18 1 17 -10 44 -19 44
-5 0 -14 18 -20 40 -6 22 -15 38 -20 35 -6 -4 -10 3 -10 15 0 12 -8 35 -17 53
-13 24 -19 69 -23 177 -6 122 -11 155 -31 205 -28 67 -88 162 -134 211 -26 28
-33 31 -55 22 -42 -16 -269 -26 -291 -12 -4 2 -9 -1 -11 -8 -3 -9 -20 -9 -74
0 -38 7 -123 15 -189 18 -66 3 -152 7 -192 9 -53 2 -75 -1 -84 -11 -6 -8 -16
-14 -21 -14 -9 0 -61 -35 -85 -56 -7 -7 -9 -15 -5 -18 3 -4 -2 -4 -12 0 -10 4
-21 2 -25 -5 -10 -15 -87 -20 -84 -5 1 6 -9 22 -22 34 -16 15 -25 35 -25 53 0
19 -9 38 -25 53 -14 13 -25 27 -25 32 0 6 -11 13 -24 16 -14 3 -28 15 -31 26
-7 21 -46 37 -64 25 -6 -3 -11 1 -11 10 0 9 -3 14 -8 11 -7 -4 -95 22 -117 36
-5 3 -25 9 -42 13 -18 3 -33 11 -33 16 0 5 -7 9 -15 9 -8 0 -15 3 -15 8 0 12
-52 31 -103 38 -30 4 -47 3 -47 -4 0 -6 -16 -16 -35 -22 -19 -6 -33 -16 -30
-21 4 -5 -3 -9 -13 -9 -11 0 -25 -7 -32 -15 -28 -33 -150 -1 -150 39 0 12 -6
28 -12 34 -10 10 -10 17 -1 32 9 13 9 20 1 22 -6 2 -8 13 -4 24 6 19 15 20
129 20 101 0 140 5 225 27 165 43 200 38 314 -50 85 -65 118 -76 213 -71 77 5
105 13 281 79 60 23 65 23 170 10 179 -22 232 -24 281 -12 48 13 255 124 404
218 143 89 165 95 389 103 140 5 205 11 230 22 46 20 99 79 141 158 23 44 63
92 129 155 292 282 370 359 447 447 330 375 503 669 603 1024 58 206 68 278
101 714 6 79 15 153 21 165 6 11 37 55 68 97 71 94 95 155 120 308 24 143 32
165 104 305 31 61 63 137 72 170 28 103 29 317 4 635 -24 308 -23 456 4 530 9
25 43 90 76 145 90 153 94 165 94 345 0 85 -2 216 -3 290 -2 107 1 156 19 240
24 119 92 300 153 409 l42 74 6 -154 c9 -223 38 -341 138 -555 28 -61 51 -114
51 -117 0 -4 -15 1 -34 10 -37 17 -80 12 -89 -11 -15 -38 15 -154 67 -261 50
-104 79 -178 90 -235 3 -14 3 8 2 48 l-3 72 31 -5 c17 -4 134 -28 261 -54 184
-38 231 -51 233 -64 2 -9 8 -17 14 -17 39 0 -47 207 -132 318 -36 47 -125 184
-151 235 -17 30 8 12 106 -77 178 -162 262 -312 281 -499 10 -100 29 -82 27
24 -3 195 -112 364 -363 566 -85 69 -111 96 -134 141 -94 185 -108 395 -40
630 59 204 174 368 295 419 25 11 28 8 116 -125 50 -76 108 -169 131 -207 74
-128 148 -332 177 -485 l14 -75 -5 70 c-21 264 -107 480 -292 727 -45 61 -80
113 -78 115 12 12 175 3 214 -11 52 -19 126 -70 147 -103 17 -25 35 -30 35 -9
0 23 -98 106 -158 134 -51 24 -69 27 -162 27 -91 -1 -112 -4 -160 -27 -181
-84 -326 -347 -361 -651 -26 -232 26 -394 220 -682 51 -77 106 -165 122 -196
29 -56 57 -154 47 -164 -3 -3 -92 10 -197 30 -106 19 -205 35 -220 35 -25 0
-31 8 -68 93 -45 100 -73 187 -73 224 0 28 -2 28 51 4 54 -24 79 -14 79 31 0
17 -23 83 -52 147 -67 151 -85 204 -110 320 -52 239 -14 498 100 686 56 93
173 202 269 253 46 24 87 40 93 37 5 -3 10 -1 10 5 0 6 3 9 8 6 4 -2 52 9 107
24 137 40 232 37 326 -8z m-246 -1910 c-2 -2 -12 -1 -23 2 -15 5 -21 19 -26
56 -4 28 -9 58 -11 68 -3 9 10 -14 29 -53 19 -38 33 -72 31 -73z m-811 -946
c106 -163 229 -287 341 -342 77 -38 82 -39 185 -39 117 0 164 15 242 77 23 18
39 28 37 23 -18 -43 -86 -159 -117 -200 -78 -103 -205 -167 -337 -169 -72 -1
-87 2 -147 32 -107 53 -164 139 -238 361 -33 98 -111 436 -110 474 1 7 15 -12
33 -42 18 -29 67 -108 111 -175z m-3651 105 c7 -7 -3 -7 -29 0 -57 15 -64 20
-20 14 22 -2 44 -9 49 -14z m92 -211 c9 -14 -22 -69 -59 -103 -43 -41 -126
-77 -190 -84 l-53 -6 -17 48 c-11 35 -13 52 -5 61 12 14 96 44 209 73 86 23
106 25 115 11z m-2413 -145 c73 -14 142 -30 153 -35 11 -4 32 -11 47 -14 20
-5 30 -16 42 -53 9 -26 13 -50 8 -55 -4 -4 -46 -12 -94 -17 -114 -13 -166 2
-247 69 -59 49 -76 83 -59 114 11 20 -7 21 150 -9z m2034 13 c17 -27 30 -114
22 -144 -19 -75 -130 -132 -298 -155 -85 -12 -187 -33 -211 -43 -14 -6 -19 4
-29 59 -7 38 -9 70 -4 74 5 3 43 18 84 31 41 14 147 62 235 107 162 83 188 92
201 71z m-1620 -102 c22 -7 94 -23 161 -36 67 -12 126 -27 131 -33 4 -7 14
-30 20 -52 17 -60 9 -62 -158 -45 -52 6 -116 17 -141 25 -55 19 -116 78 -125
123 -6 32 -6 32 33 32 22 0 58 -6 79 -14z m544 -111 c167 -32 311 -41 409 -26
41 6 78 8 82 4 5 -5 16 -43 24 -85 32 -153 -3 -188 -197 -196 -181 -7 -306 25
-394 102 -55 49 -99 127 -110 197 l-7 42 29 -6 c16 -4 90 -18 164 -32z m-506
-706 c14 -11 26 -26 26 -33 0 -7 -30 -23 -67 -35 -38 -13 -98 -35 -136 -49
-66 -25 -68 -25 -82 -6 -8 10 -15 22 -15 26 0 12 67 61 122 90 64 33 116 36
152 7z m-141 -756 c107 -81 167 -135 167 -149 0 -10 -13 -14 -41 -14 -61 0
-246 28 -304 47 -55 17 -132 61 -139 80 -7 16 31 39 95 57 129 36 150 34 222
-21z m277 17 c122 -30 180 -64 180 -106 0 -19 -9 -25 -57 -40 -32 -9 -80 -19
-108 -21 -49 -4 -52 -3 -110 50 -33 29 -81 67 -106 84 -25 17 -52 39 -60 49
-13 16 -8 17 83 10 53 -4 133 -16 178 -26z m-550 -125 c34 -40 240 -85 398
-85 l82 0 0 -35 c0 -29 -4 -36 -26 -41 -67 -17 -353 30 -435 71 -50 26 -69 49
-69 84 0 25 31 29 50 6z m750 -64 c0 -26 -7 -33 -52 -54 -29 -14 -79 -28 -110
-32 l-58 -7 0 35 c0 35 0 36 58 47 31 6 77 18 102 25 61 18 60 19 60 -14z
m5705 -1461 c3 -6 -1 -7 -9 -4 -18 7 -21 14 -7 14 6 0 13 -4 16 -10z m92 -52
c-3 -8 -6 -5 -6 6 -1 11 2 17 5 13 3 -3 4 -12 1 -19z m58 -18 c3 -5 1 -10 -4
-10 -6 0 -11 5 -11 10 0 6 2 10 4 10 3 0 8 -4 11 -10z m-757 -215 c-3 -3 -9 2
-12 12 -6 14 -5 15 5 6 7 -7 10 -15 7 -18z m69 -37 c-3 -8 -6 -5 -6 6 -1 11 2
17 5 13 3 -3 4 -12 1 -19z m1283 12 c0 -5 -4 -10 -10 -10 -5 0 -10 5 -10 10 0
6 5 10 10 10 6 0 10 -4 10 -10z m71 -17 c13 -16 12 -17 -3 -4 -10 7 -18 15
-18 17 0 8 8 3 21 -13z m-1291 -23 c0 -5 -2 -10 -4 -10 -3 0 -8 5 -11 10 -3 6
-1 10 4 10 6 0 11 -4 11 -10z m15 -108 c-3 -3 -11 0 -18 7 -9 10 -8 11 6 5 10
-3 15 -9 12 -12z m210 7 c-5 -6 -55 0 -55 7 0 3 13 3 29 2 16 -1 28 -5 26 -9z
m35 -9 c0 -5 -2 -10 -4 -10 -3 0 -8 5 -11 10 -3 6 -1 10 4 10 6 0 11 -4 11
-10z m1260 -30 c6 -11 9 -20 7 -20 -2 0 -12 9 -22 20 -10 11 -13 20 -7 20 6 0
16 -9 22 -20z m-1186 -29 c-2 -3 -12 3 -22 13 -16 17 -16 18 5 5 12 -7 20 -15
17 -18z m66 -32 c0 -5 -4 -9 -10 -9 -5 0 -10 7 -10 16 0 8 5 12 10 9 6 -3 10
-10 10 -16z m1260 -20 c0 -6 -4 -7 -10 -4 -5 3 -10 11 -10 16 0 6 5 7 10 4 6
-3 10 -11 10 -16z m-6893 -41 c-3 -8 -6 -5 -6 6 -1 11 2 17 5 13 3 -3 4 -12 1
-19z m-921 -67 c-6 -9 -46 -22 -46 -15 0 3 10 9 23 14 29 11 29 11 23 1z
m6829 -39 c-3 -3 -16 5 -28 17 l-22 23 28 -17 c15 -10 25 -20 22 -23z m-184 5
c-10 -9 -11 -8 -5 6 3 10 9 15 12 12 3 -3 0 -11 -7 -18z m257 -52 c-3 -3 -9 2
-12 12 -6 14 -5 15 5 6 7 -7 10 -15 7 -18z m-153 5 c3 -5 1 -10 -4 -10 -6 0
-11 5 -11 10 0 6 2 10 4 10 3 0 8 -4 11 -10z m208 -13 c4 3 7 4 7 0 0 -18 -21
-14 -30 5 -10 21 -10 21 3 6 8 -10 17 -15 20 -11z m-156 -19 c-3 -8 -6 -5 -6
6 -1 11 2 17 5 13 3 -3 4 -12 1 -19z m38 -18 c7 0 15 -7 19 -15 5 -13 2 -13
-19 1 -14 9 -25 21 -24 28 0 7 2 6 6 -1 2 -7 11 -13 18 -13z m-6220 -30 c3 -5
-1 -10 -9 -10 -9 0 -16 -5 -16 -12 0 -6 -2 -9 -5 -6 -7 7 5 38 15 38 5 0 12
-4 15 -10z m-82 -57 c-3 -7 -6 -13 -8 -13 -2 0 -5 6 -8 13 -3 8 1 14 8 14 7 0
11 -6 8 -14z m6474 -45 c-3 -8 -6 -5 -6 6 -1 11 2 17 5 13 3 -3 4 -12 1 -19z
m-7029 -12 c-7 -8 -15 -12 -17 -11 -5 6 10 25 20 25 5 0 4 -6 -3 -14z m7049
-8 c-3 -8 -6 -5 -6 6 -1 11 2 17 5 13 3 -3 4 -12 1 -19z m39 -15 c-10 -10 -19
5 -10 18 6 11 8 11 12 0 2 -7 1 -15 -2 -18z m-5376 13 c0 -3 -4 -8 -10 -11 -5
-3 -10 -1 -10 4 0 6 5 11 10 11 6 0 10 -2 10 -4z m-1276 -21 c3 -8 1 -15 -3
-15 -5 0 -11 7 -15 15 -3 8 -1 15 3 15 5 0 11 -7 15 -15z m6687 -8 c-10 -9
-11 -8 -5 6 3 10 9 15 12 12 3 -3 0 -11 -7 -18z m219 -9 c0 -6 -7 -5 -15 2 -8
7 -15 17 -15 22 0 6 7 5 15 -2 8 -7 15 -17 15 -22z m725 -9 c-10 -15 -25 -10
-19 6 4 8 10 12 15 9 5 -3 7 -10 4 -15z m-898 -11 c-3 -8 -6 -5 -6 6 -1 11 2
17 5 13 3 -3 4 -12 1 -19z m-7747 8 c0 -3 -4 -8 -10 -11 -5 -3 -10 -1 -10 4 0
6 5 11 10 11 6 0 10 -2 10 -4z m5945 -16 c3 -5 1 -10 -4 -10 -6 0 -11 5 -11
10 0 6 2 10 4 10 3 0 8 -4 11 -10z m-5005 -15 c0 -2 -6 -5 -13 -8 -8 -3 -14 1
-14 8 0 7 6 11 14 8 7 -3 13 -6 13 -8z m6845 -3 c-3 -3 -11 0 -18 7 -9 10 -8
11 6 5 10 -3 15 -9 12 -12z m-5475 -12 c0 -5 -5 -10 -11 -10 -5 0 -7 5 -4 10
3 6 8 10 11 10 2 0 4 -4 4 -10z m6287 -22 c-3 -8 -6 -5 -6 6 -1 11 2 17 5 13
3 -3 4 -12 1 -19z m-2519 -23 c-3 -3 -9 2 -12 12 -6 14 -5 15 5 6 7 -7 10 -15
7 -18z m122 15 c0 -5 -5 -10 -11 -10 -5 0 -7 5 -4 10 3 6 8 10 11 10 2 0 4 -4
4 -10z m1900 -37 c0 -8 5 -11 12 -7 7 5 8 3 3 -6 -6 -10 -12 -7 -26 11 -22 29
-25 46 -4 29 8 -7 15 -19 15 -27z m-1996 11 c3 -8 2 -12 -4 -9 -6 3 -10 10
-10 16 0 14 7 11 14 -7z m-6267 -36 c-3 -7 -5 -2 -5 12 0 14 2 19 5 13 2 -7 2
-19 0 -25z m6297 16 c3 -8 2 -12 -4 -9 -6 3 -10 10 -10 16 0 14 7 11 14 -7z
m-5344 -8 c0 -2 -8 -10 -17 -17 -16 -13 -17 -12 -4 4 13 16 21 21 21 13z
m7134 -12 c3 -8 2 -12 -4 -9 -6 3 -10 10 -10 16 0 14 7 11 14 -7z m589 -9 c-3
-9 -8 -14 -10 -11 -3 3 -2 9 2 15 9 16 15 13 8 -4z m-3913 -37 l23 -33 -29 26
c-16 15 -36 29 -44 32 -10 4 -9 6 6 6 12 1 30 -12 44 -31z m3610 6 c0 -2 -9 0
-20 6 -11 6 -20 13 -20 16 0 2 9 0 20 -6 11 -6 20 -13 20 -16z m-157 -29 c14
-19 14 -23 3 -19 -8 3 -22 16 -30 30 -21 31 3 22 27 -11z m515 18 c-8 -10 -20
-27 -26 -38 -6 -11 -12 -15 -12 -9 0 12 38 64 47 64 3 0 -1 -8 -9 -17z m-300
-38 c-3 -3 -9 2 -12 12 -6 14 -5 15 5 6 7 -7 10 -15 7 -18z m183 2 c-10 -9
-11 -8 -5 6 3 10 9 15 12 12 3 -3 0 -11 -7 -18z m-2114 -19 c-3 -8 -6 -5 -6 6
-1 11 2 17 5 13 3 -3 4 -12 1 -19z m130 0 c-3 -8 -6 -5 -6 6 -1 11 2 17 5 13
3 -3 4 -12 1 -19z m1633 7 c11 -13 10 -14 -4 -9 -9 3 -16 10 -16 15 0 13 6 11
20 -6z m-7296 -3 c3 -5 -1 -9 -9 -9 -8 0 -12 4 -9 9 3 4 7 8 9 8 2 0 6 -4 9
-8z m7617 -15 c-10 -9 -11 -8 -5 6 3 10 9 15 12 12 3 -3 0 -11 -7 -18z m-101
-8 c0 -6 -4 -7 -10 -4 -5 3 -10 11 -10 16 0 6 5 7 10 4 6 -3 10 -11 10 -16z
m200 17 c0 -2 -8 -10 -17 -17 -16 -13 -17 -12 -4 4 13 16 21 21 21 13z m-382
-41 c-3 -3 -9 2 -12 12 -6 14 -5 15 5 6 7 -7 10 -15 7 -18z m-4855 -29 c-10
-13 -20 -22 -22 -20 -4 4 29 44 36 44 2 0 -4 -11 -14 -24z m-3236 -8 c7 -5 17
-7 23 -3 6 4 17 1 25 -5 8 -7 24 -10 35 -7 11 3 23 0 28 -7 4 -7 24 -19 44
-27 21 -8 34 -19 30 -24 -6 -10 -241 -120 -303 -144 -23 -8 -28 -6 -44 22 -11
18 -32 44 -49 59 -26 24 -28 30 -19 50 6 13 14 31 17 40 3 12 11 15 22 11 11
-4 15 -2 11 4 -7 11 18 37 40 44 23 7 128 -3 140 -13z m3287 13 c3 -5 -2 -15
-12 -22 -15 -12 -16 -12 -5 2 7 9 10 19 6 22 -3 4 -4 7 0 7 3 0 8 -4 11 -9z
m4896 -46 c0 -4 -9 4 -20 18 -11 14 -20 28 -20 32 0 4 9 -4 20 -18 11 -14 20
-28 20 -32z m-7545 26 c-3 -6 -14 -10 -23 -10 -15 1 -15 2 1 6 9 2 17 9 17 15
0 6 3 9 6 5 3 -3 3 -10 -1 -16z m7768 4 c-3 -9 -8 -14 -10 -11 -3 3 -2 9 2 15
9 16 15 13 8 -4z m-1939 -21 c3 -8 2 -12 -4 -9 -6 3 -10 10 -10 16 0 14 7 11
14 -7z m-5893 -17 c-10 -9 -11 -8 -5 6 3 10 9 15 12 12 3 -3 0 -11 -7 -18z
m7637 -2 c1 -13 -2 -26 -6 -29 -6 -3 -8 36 -3 52 3 8 7 -2 9 -23z m-3533 5 c3
-6 -1 -7 -9 -4 -18 7 -21 14 -7 14 6 0 13 -4 16 -10z m69 -5 c11 -8 16 -15 10
-15 -5 0 -18 7 -28 15 -11 8 -16 15 -10 15 5 0 18 -7 28 -15z m3617 -8 c-10
-9 -11 -8 -5 6 3 10 9 15 12 12 3 -3 0 -11 -7 -18z m-7990 -40 c-10 -9 -11 -8
-5 6 3 10 9 15 12 12 3 -3 0 -11 -7 -18z m2873 14 c3 -5 -3 -11 -13 -14 -14
-3 -18 -1 -14 9 6 16 19 18 27 5z m4929 -26 c-3 -9 -8 -14 -10 -11 -3 3 -2 9
2 15 9 16 15 13 8 -4z m-3446 -17 c-3 -8 -6 -5 -6 6 -1 11 2 17 5 13 3 -3 4
-12 1 -19z m2010 16 c-3 -3 -12 -4 -19 -1 -8 3 -5 6 6 6 11 1 17 -2 13 -5z
m-6457 -41 c0 -8 13 -13 30 -13 17 0 30 -5 30 -10 0 -6 11 -16 25 -22 14 -6
25 -15 25 -19 0 -5 20 -27 45 -51 31 -30 45 -51 44 -68 0 -14 -3 -19 -6 -12
-2 6 -14 12 -24 12 -11 0 -17 5 -14 10 3 6 -1 10 -9 10 -8 0 -21 6 -28 13 -21
20 -88 57 -104 57 -8 0 -14 5 -14 10 0 6 -9 10 -20 10 -11 0 -23 7 -26 15 -4
8 -17 15 -29 15 -13 0 -27 5 -30 10 -3 6 -17 7 -31 4 -44 -11 -25 7 39 35 48
22 66 25 80 17 9 -6 17 -16 17 -23z m4573 -13 c3 -11 2 -20 -3 -20 -4 0 -10
11 -12 25 -6 29 7 25 15 -5z m1775 5 c-3 -3 -9 2 -12 12 -6 14 -5 15 5 6 7 -7
10 -15 7 -18z m1636 10 c-4 -8 -8 -15 -10 -15 -2 0 -4 7 -4 15 0 8 4 15 10 15
5 0 7 -7 4 -15z m-1476 -40 c-3 -3 -13 7 -23 22 l-17 28 23 -22 c12 -12 20
-25 17 -28z m-6724 -29 c-4 -10 -17 -16 -38 -16 l-31 1 35 19 c39 20 43 20 34
-4z m3116 20 c0 -3 -4 -8 -10 -11 -5 -3 -10 -1 -10 4 0 6 5 11 10 11 6 0 10
-2 10 -4z m1641 -13 c13 -17 13 -17 -6 -3 -11 8 -22 16 -24 17 -2 2 0 3 6 3 6
0 17 -8 24 -17z m-1727 -2 c3 -5 -1 -11 -9 -14 -9 -4 -12 -1 -8 9 6 16 10 17
17 5z m1836 -36 c13 -14 21 -25 18 -25 -2 0 -15 11 -28 25 -13 14 -21 25 -18
25 2 0 15 -11 28 -25z m1820 15 c0 -5 -7 -7 -15 -4 -8 4 -15 8 -15 10 0 2 7 4
15 4 8 0 15 -4 15 -10z m-5037 -15 c-3 -9 -8 -14 -10 -11 -3 3 -2 9 2 15 9 16
15 13 8 -4z m1420 -20 c-3 -9 -8 -14 -10 -11 -3 3 -2 9 2 15 9 16 15 13 8 -4z
m3677 -20 c14 -19 14 -19 -2 -6 -10 7 -18 18 -18 24 0 6 1 8 3 6 1 -2 9 -13
17 -24z m-5245 5 c3 -5 1 -10 -4 -10 -6 0 -11 5 -11 10 0 6 2 10 4 10 3 0 8
-4 11 -10z m1475 -4 c0 -3 -4 -8 -10 -11 -5 -3 -10 -1 -10 4 0 6 5 11 10 11 6
0 10 -2 10 -4z m1870 -28 c0 -5 -7 -3 -15 6 -8 8 -15 18 -15 22 0 3 7 1 15 -6
8 -7 15 -17 15 -22z m3040 18 c0 -3 -4 -8 -10 -11 -5 -3 -10 -1 -10 4 0 6 5
11 10 11 6 0 10 -2 10 -4z m-4937 -36 c-3 -12 -8 -19 -11 -16 -5 6 5 36 12 36
2 0 2 -9 -1 -20z m3984 -17 c-3 -10 -5 -4 -5 12 0 17 2 24 5 18 2 -7 2 -21 0
-30z m903 27 c0 -5 -2 -10 -4 -10 -3 0 -8 5 -11 10 -3 6 -1 10 4 10 6 0 11 -4
11 -10z m-6277 -25 c-3 -9 -8 -14 -10 -11 -3 3 -2 9 2 15 9 16 15 13 8 -4z
m-1443 1 c0 -3 -4 -8 -10 -11 -5 -3 -10 -1 -10 4 0 6 5 11 10 11 6 0 10 -2 10
-4z m4860 -11 c14 -8 21 -14 15 -14 -5 0 -21 6 -35 14 -14 8 -20 14 -15 14 6
0 21 -6 35 -14z m-1976 -10 c-4 -9 -16 -21 -28 -27 -19 -10 -19 -9 3 16 28 30
33 32 25 11z m4781 5 c3 -5 1 -10 -4 -10 -6 0 -11 5 -11 10 0 6 2 10 4 10 3 0
8 -4 11 -10z m-6385 -4 c0 -2 -7 -9 -15 -16 -13 -11 -14 -10 -9 4 5 14 24 23
24 12z m5474 -12 c3 -8 2 -12 -4 -9 -6 3 -10 10 -10 16 0 14 7 11 14 -7z m100
0 c3 -8 2 -12 -4 -9 -6 3 -10 10 -10 16 0 14 7 11 14 -7z m791 -4 c3 -5 1 -10
-4 -10 -6 0 -11 5 -11 10 0 6 2 10 4 10 3 0 8 -4 11 -10z m-7705 -15 c-7 -8
-17 -15 -23 -15 -6 0 -2 7 9 15 25 19 30 19 14 0z m2298 -25 c33 -42 33 -103
-1 -134 -14 -13 -40 -27 -57 -31 -38 -8 -132 4 -124 16 3 5 1 9 -3 9 -5 0 -9
12 -9 28 1 20 -4 28 -21 30 -39 6 -35 29 8 36 21 3 39 11 39 16 0 6 9 10 19
10 11 0 26 6 33 13 44 44 85 46 116 7z m538 -7 c-8 -15 -15 -25 -16 -21 0 12
23 58 27 54 3 -2 -2 -17 -11 -33z m4131 22 c0 -8 -4 -12 -9 -9 -4 3 -8 9 -8
15 0 5 4 9 8 9 5 0 9 -7 9 -15z m-7202 -33 l-28 -27 24 31 c13 17 26 30 28 27
3 -2 -8 -16 -24 -31z m1632 12 c-3 -3 -12 -4 -19 -1 -8 3 -5 6 6 6 11 1 17 -2
13 -5z m5478 -4 c3 -5 1 -10 -4 -10 -6 0 -11 5 -11 10 0 6 2 10 4 10 3 0 8 -4
11 -10z m125 -11 c0 -6 -4 -7 -10 -4 -5 3 -10 11 -10 16 0 6 5 7 10 4 6 -3 10
-11 10 -16z m-5643 -11 c-3 -8 -6 -5 -6 6 -1 11 2 17 5 13 3 -3 4 -12 1 -19z
m8403 8 c0 -3 -4 -8 -10 -11 -5 -3 -10 -1 -10 4 0 6 5 11 10 11 6 0 10 -2 10
-4z m-6880 -27 c-7 -11 -14 -18 -17 -15 -3 3 0 12 7 21 18 21 23 19 10 -6z
m2150 -11 c0 -12 -6 -9 -26 13 -19 22 -19 22 4 8 12 -8 22 -17 22 -21z m2717
0 c-3 -8 -6 -5 -6 6 -1 11 2 17 5 13 3 -3 4 -12 1 -19z m-7867 -8 c0 -5 -7
-10 -16 -10 -8 0 -12 5 -9 10 3 6 10 10 16 10 5 0 9 -4 9 -10z m5077 -12 c-3
-8 -6 -5 -6 6 -1 11 2 17 5 13 3 -3 4 -12 1 -19z m2003 7 c7 -9 8 -15 2 -15
-5 0 -12 7 -16 15 -3 8 -4 15 -2 15 2 0 9 -7 16 -15z m-7707 -34 c-13 -15 -26
-19 -38 -15 -13 5 -16 4 -11 -4 5 -8 -1 -12 -18 -12 -14 0 -26 -6 -26 -12 0
-10 -2 -10 -9 0 -7 11 -15 11 -46 -2 -20 -9 -41 -13 -47 -10 -5 3 37 25 94 48
104 43 137 45 101 7z m579 27 c-5 -7 -12 -22 -15 -33 -5 -20 -5 -20 -6 1 0 11
4 25 11 32 16 16 23 15 10 0z m2947 -50 c-7 -13 -14 -18 -16 -11 -3 7 2 19 9
27 18 20 22 12 7 -16z m4351 6 c0 -2 -7 -4 -15 -4 -8 0 -15 4 -15 10 0 5 7 7
15 4 8 -4 15 -8 15 -10z m-5860 -4 c0 -5 -5 -10 -11 -10 -5 0 -7 5 -4 10 3 6
8 10 11 10 2 0 4 -4 4 -10z m-130 -30 c-8 -5 -16 -8 -17 -6 -2 2 -1 11 3 20 5
13 10 14 18 6 8 -8 7 -13 -4 -20z m1693 23 c-7 -2 -13 -12 -13 -20 0 -9 -3
-14 -6 -10 -10 10 4 37 18 36 10 0 10 -2 1 -6z m4205 -18 c-3 -3 -9 2 -12 12
-6 14 -5 15 5 6 7 -7 10 -15 7 -18z m119 -7 c-3 -8 -6 -5 -6 6 -1 11 2 17 5
13 3 -3 4 -12 1 -19z m-83 -24 c3 -8 2 -12 -4 -9 -6 3 -10 10 -10 16 0 14 7
11 14 -7z m1323 -16 c-3 -8 -6 -5 -6 6 -1 11 2 17 5 13 3 -3 4 -12 1 -19z
m-7229 -38 c-7 -10 -14 -17 -17 -15 -4 4 18 35 25 35 2 0 -1 -9 -8 -20z m1532
7 c0 -7 -7 -22 -15 -33 -13 -17 -13 -16 -3 14 13 34 18 40 18 19z m66 -22 c-9
-9 -16 -21 -16 -27 0 -6 -3 -8 -6 -5 -4 4 1 18 10 33 10 14 20 23 23 20 3 -3
-2 -12 -11 -21z m4481 3 c-3 -8 -6 -5 -6 6 -1 11 2 17 5 13 3 -3 4 -12 1 -19z
m30 0 c-3 -8 -6 -5 -6 6 -1 11 2 17 5 13 3 -3 4 -12 1 -19z m-100 -20 c-3 -8
-6 -5 -6 6 -1 11 2 17 5 13 3 -3 4 -12 1 -19z m1128 12 c3 -5 1 -10 -4 -10 -6
0 -11 5 -11 10 0 6 2 10 4 10 3 0 8 -4 11 -10z m-8428 -22 c-3 -8 -6 -5 -6 6
-1 11 2 17 5 13 3 -3 4 -12 1 -19z m1248 2 c-3 -5 -11 -10 -16 -10 -6 0 -7 5
-4 10 3 6 11 10 16 10 6 0 7 -4 4 -10z m4035 -15 c14 -19 14 -19 -2 -6 -10 7
-18 18 -18 24 0 6 1 8 3 6 1 -2 9 -13 17 -24z m51 8 c13 -16 12 -17 -3 -4 -17
13 -22 21 -14 21 2 0 10 -8 17 -17z m-4234 -25 c-3 -8 -6 -5 -6 6 -1 11 2 17
5 13 3 -3 4 -12 1 -19z m4279 -3 c9 -8 11 -15 6 -15 -5 0 -15 7 -22 15 -7 8
-9 15 -6 15 4 0 14 -7 22 -15z m-6716 -15 c0 -5 -8 -10 -17 -10 -15 0 -16 2
-3 10 19 12 20 12 20 0z m8590 0 c0 -5 -2 -10 -4 -10 -3 0 -8 5 -11 10 -3 6
-1 10 4 10 6 0 11 -4 11 -10z m-4491 -36 c-17 -20 -49 -37 -49 -26 0 6 9 12
21 15 11 3 23 16 26 28 4 13 8 18 11 11 2 -7 -2 -20 -9 -28z m47 -22 c-15 -15
-15 -15 -4 10 7 15 15 23 17 17 2 -6 -4 -18 -13 -27z m-1669 6 c-3 -8 -6 -5
-6 6 -1 11 2 17 5 13 3 -3 4 -12 1 -19z m4333 -46 c0 -3 -9 3 -20 13 -11 10
-20 23 -20 28 0 6 9 0 20 -13 11 -13 20 -25 20 -28z m-4456 24 c-6 -15 -34
-31 -34 -19 0 5 30 32 37 33 1 0 0 -6 -3 -14z m4356 4 c0 -5 -4 -10 -10 -10
-5 0 -10 5 -10 10 0 6 5 10 10 10 6 0 10 -4 10 -10z m5655 -11 c12 -18 -3 -22
-20 -5 -14 14 -14 16 -1 16 8 0 18 -5 21 -11z m-9945 -22 c0 -2 -10 -12 -22
-23 l-23 -19 19 23 c18 21 26 27 26 19z m1584 -73 c-10 -21 -20 -32 -22 -25
-3 8 0 16 5 20 6 3 13 20 18 36 4 17 9 25 12 18 2 -7 -4 -29 -13 -49z m2764
21 c-3 -3 -9 2 -12 12 -6 14 -5 15 5 6 7 -7 10 -15 7 -18z m-8118 -5 c0 -5 -5
-10 -11 -10 -5 0 -7 5 -4 10 3 6 8 10 11 10 2 0 4 -4 4 -10z m9620 -10 c0 -5
-2 -10 -4 -10 -3 0 -8 5 -11 10 -3 6 -1 10 4 10 6 0 11 -4 11 -10z m-9657 -25
c-3 -9 -8 -14 -10 -11 -3 3 -2 9 2 15 9 16 15 13 8 -4z m8317 -50 c23 -27 6
-22 -25 9 -20 20 -23 25 -9 18 11 -6 27 -18 34 -27z m-8380 21 c0 -2 -7 -7
-16 -10 -8 -3 -12 -2 -9 4 6 10 25 14 25 6z m3752 -18 c-7 -7 -12 -8 -12 -2 0
14 12 26 19 19 2 -3 -1 -11 -7 -17z m-118 -3 c-4 -8 -8 -15 -10 -15 -2 0 -4 7
-4 15 0 8 4 15 10 15 5 0 7 -7 4 -15z m1856 -9 c0 -2 -8 -10 -17 -17 -16 -13
-17 -12 -4 4 13 16 21 21 21 13z m-2243 -28 c-3 -8 -6 -5 -6 6 -1 11 2 17 5
13 3 -3 4 -12 1 -19z m2139 -6 c-17 -16 -18 -16 -5 5 7 12 15 20 18 17 3 -2
-3 -12 -13 -22z m-1799 -4 c-3 -8 -6 -5 -6 6 -1 11 2 17 5 13 3 -3 4 -12 1
-19z m-3716 -25 c-12 -20 -14 -14 -5 12 4 9 9 14 11 11 3 -2 0 -13 -6 -23z
m5487 -18 c-3 -3 -9 2 -12 12 -6 14 -5 15 5 6 7 -7 10 -15 7 -18z m3030 -36
c-3 -8 -12 1 -22 21 l-17 35 22 -21 c12 -12 19 -28 17 -35z m100 11 c9 -14 9
-21 0 -26 -7 -4 -8 -3 -4 4 4 8 -3 16 -18 22 -14 5 -26 14 -26 19 0 15 35 1
48 -19z m5592 9 c0 -6 -4 -7 -10 -4 -5 3 -10 11 -10 16 0 6 5 7 10 4 6 -3 10
-11 10 -16z m-11519 -16 c-8 -15 -10 -15 -11 -2 0 17 10 32 18 25 2 -3 -1 -13
-7 -23z m2832 -18 c-3 -9 -8 -14 -10 -11 -3 3 -2 9 2 15 9 16 15 13 8 -4z
m8735 -10 c-3 -3 -9 2 -12 12 -6 14 -5 15 5 6 7 -7 10 -15 7 -18z m-10398 -15
c0 -5 -2 -10 -4 -10 -3 0 -8 5 -11 10 -3 6 -1 10 4 10 6 0 11 -4 11 -10z
m-1106 -16 c3 -8 2 -12 -4 -9 -6 3 -10 10 -10 16 0 14 7 11 14 -7z m2679 -1
c-7 -3 -13 -12 -14 -21 0 -11 -2 -13 -6 -4 -6 15 17 46 26 36 3 -4 0 -9 -6
-11z m8861 1 c3 -8 2 -12 -4 -9 -6 3 -10 10 -10 16 0 14 7 11 14 -7z m-5723
-21 c13 -16 12 -17 -3 -4 -10 7 -18 15 -18 17 0 8 8 3 21 -13z m118 -24 c3 -9
-1 -8 -13 4 -10 9 -22 17 -27 17 -5 0 -9 5 -9 11 0 15 42 -13 49 -32z m-3194
12 c3 -5 2 -12 -3 -15 -5 -3 -9 1 -9 9 0 17 3 19 12 6z m8876 -111 c4 0 14
-10 20 -22 11 -22 11 -22 -13 2 -31 31 -68 90 -68 109 0 8 12 -8 26 -37 14
-29 30 -52 35 -52z m-10514 28 c-3 -8 -6 -5 -6 6 -1 11 2 17 5 13 3 -3 4 -12
1 -19z m4803 -13 c0 -9 -6 -12 -15 -9 -8 4 -15 10 -15 15 0 5 7 9 15 9 8 0 15
-7 15 -15z m-3316 -39 c-3 -9 -10 -16 -15 -16 -5 0 -4 9 3 20 14 22 21 20 12
-4z m-1269 -26 c3 -5 1 -10 -4 -10 -6 0 -11 5 -11 10 0 6 2 10 4 10 3 0 8 -4
11 -10z m6382 -12 c-3 -8 -6 -5 -6 6 -1 11 2 17 5 13 3 -3 4 -12 1 -19z
m-1757 -8 c0 -5 -5 -10 -11 -10 -5 0 -7 5 -4 10 3 6 8 10 11 10 2 0 4 -4 4
-10z m-3312 -20 c-7 -10 -14 -17 -17 -15 -4 4 18 35 25 35 2 0 -1 -9 -8 -20z
m-92 -6 c-9 -8 -16 -20 -16 -26 0 -6 -3 -9 -6 -6 -8 9 14 48 27 48 6 0 3 -7
-5 -16z m-5579 -66 c-3 -8 -6 -5 -6 6 -1 11 2 17 5 13 3 -3 4 -12 1 -19z
m4640 6 c-3 -3 -12 -4 -19 -1 -8 3 -5 6 6 6 11 1 17 -2 13 -5z m894 -27 c-10
-9 -11 -8 -5 6 3 10 9 15 12 12 3 -3 0 -11 -7 -18z m93 0 c-3 -8 -12 -18 -20
-21 -11 -4 -10 0 3 18 20 26 27 28 17 3z m4886 -2 c0 -8 -2 -15 -4 -15 -2 0
-6 7 -10 15 -3 8 -1 15 4 15 6 0 10 -7 10 -15z m-1553 -27 c-3 -8 -6 -5 -6 6
-1 11 2 17 5 13 3 -3 4 -12 1 -19z m-8975 -20 c-8 -8 -9 -4 -5 13 4 13 8 18
11 10 2 -7 -1 -18 -6 -23z m5594 -16 c-17 -16 -18 -16 -5 5 7 12 15 20 18 17
3 -2 -3 -12 -13 -22z m-2026 8 c0 -5 -5 -10 -11 -10 -5 0 -7 5 -4 10 3 6 8 10
11 10 2 0 4 -4 4 -10z m6737 -72 c-3 -8 -6 -5 -6 6 -1 11 2 17 5 13 3 -3 4
-12 1 -19z m-5122 2 c3 -5 1 -10 -4 -10 -6 0 -11 5 -11 10 0 6 2 10 4 10 3 0
8 -4 11 -10z m2792 -22 c-3 -7 -5 -2 -5 12 0 14 2 19 5 13 2 -7 2 -19 0 -25z
m-1920 -40 c-3 -8 -6 -5 -6 6 -1 11 2 17 5 13 3 -3 4 -12 1 -19z m4010 -60
c-3 -8 -6 -5 -6 6 -1 11 2 17 5 13 3 -3 4 -12 1 -19z m-6063 -34 c3 -8 2 -12
-4 -9 -6 3 -10 10 -10 16 0 14 7 11 14 -7z m-4107 -46 c-3 -8 -6 -5 -6 6 -1
11 2 17 5 13 3 -3 4 -12 1 -19z m10870 -30 c-3 -8 -6 -5 -6 6 -1 11 2 17 5 13
3 -3 4 -12 1 -19z m-10890 -20 c-3 -8 -6 -5 -6 6 -1 11 2 17 5 13 3 -3 4 -12
1 -19z m5660 -10 c-3 -8 -6 -5 -6 6 -1 11 2 17 5 13 3 -3 4 -12 1 -19z m5260
-50 c-3 -8 -6 -5 -6 6 -1 11 2 17 5 13 3 -3 4 -12 1 -19z m-10960 -10 c-3 -8
-6 -5 -6 6 -1 11 2 17 5 13 3 -3 4 -12 1 -19z m4467 6 c3 -8 2 -12 -4 -9 -6 3
-10 10 -10 16 0 14 7 11 14 -7z m6456 -139 c0 -5 -5 -3 -10 5 -5 8 -10 20 -10
25 0 6 5 3 10 -5 5 -8 10 -19 10 -25z m-8851 -25 c7 0 11 -6 8 -14 -4 -9 2
-17 13 -21 10 -3 22 -16 26 -28 4 -11 13 -27 20 -35 8 -7 14 -27 14 -43 0 -16
6 -32 14 -35 8 -3 14 -15 14 -27 -1 -12 5 -44 12 -72 6 -27 12 -79 11 -115 0
-36 0 -110 0 -165 0 -55 1 -109 0 -120 0 -10 4 -24 9 -30 4 -5 8 -37 8 -70 1
-61 10 -209 16 -255 2 -14 10 -70 16 -125 7 -55 21 -119 31 -143 11 -24 20
-69 20 -100 1 -32 4 -61 7 -67 4 -5 8 -28 9 -49 2 -22 7 -42 13 -46 5 -3 11
-35 13 -70 3 -36 8 -73 12 -83 11 -27 -2 -32 -16 -5 -13 23 -18 44 -21 83 -1
11 -8 26 -16 34 -7 7 -11 20 -8 27 3 8 1 14 -4 14 -5 0 -25 33 -44 73 -30 63
-42 101 -52 157 -4 20 -25 61 -43 83 -8 9 -11 20 -8 24 4 3 2 11 -3 18 -5 6
-11 22 -13 34 -2 12 -11 30 -19 41 -9 10 -14 21 -11 24 4 3 1 6 -5 6 -7 0 -12
-5 -12 -11 0 -6 -6 -9 -14 -6 -9 4 -22 -5 -32 -21 -10 -15 -23 -31 -31 -37 -7
-5 -15 -23 -16 -40 -6 -50 -65 -144 -81 -128 -3 3 -8 -2 -12 -11 -3 -9 -10
-16 -16 -16 -15 0 -35 -24 -30 -38 2 -8 -2 -10 -13 -6 -10 4 -21 1 -25 -6 -12
-20 -39 -5 -33 18 2 11 0 29 -6 41 -7 13 -8 21 -2 21 6 0 13 17 17 38 4 20 11
40 16 43 5 3 10 21 10 40 1 18 7 40 15 47 7 7 13 27 13 43 0 16 4 29 8 29 12
0 32 104 39 205 9 117 5 359 -6 363 -4 1 -4 24 1 50 5 26 13 72 17 104 5 31
11 60 14 65 3 5 8 42 12 83 3 41 10 79 16 85 5 5 9 17 9 27 0 10 6 21 14 24 7
3 11 15 9 27 -6 31 36 80 62 73 11 -3 26 -6 34 -6z m7358 -12 c-3 -8 -6 -5 -6
6 -1 11 2 17 5 13 3 -3 4 -12 1 -19z m1618 -18 c3 -5 1 -10 -4 -10 -6 0 -11 5
-11 10 0 6 2 10 4 10 3 0 8 -4 11 -10z m-5938 -52 c-3 -7 -5 -2 -5 12 0 14 2
19 5 13 2 -7 2 -19 0 -25z m153 -18 c0 -5 -4 -10 -10 -10 -5 0 -10 5 -10 10 0
6 5 10 10 10 6 0 10 -4 10 -10z m8580 -67 c12 -27 26 -56 31 -65 5 -10 9 -24
9 -31 0 -7 9 -31 20 -52 12 -22 19 -48 16 -57 -2 -10 0 -20 4 -23 4 -3 16 -31
25 -63 21 -70 54 -154 66 -166 5 -6 9 -20 9 -32 0 -13 5 -26 10 -29 6 -4 10
-15 8 -25 -2 -10 7 -26 20 -36 20 -17 22 -25 16 -66 -5 -38 -11 -48 -25 -48
-11 0 -18 3 -17 8 4 11 -28 53 -35 45 -4 -3 -8 1 -8 10 -3 34 -4 38 -15 45 -6
4 -15 22 -19 40 -3 17 -10 32 -15 32 -5 0 -12 15 -15 33 -4 17 -10 34 -14 37
-11 9 -60 173 -67 223 -3 26 -10 50 -15 53 -5 3 -9 23 -9 44 0 21 -4 41 -9 44
-10 7 -21 94 -14 113 9 23 21 14 43 -34z m-8323 -15 c-3 -8 -6 -5 -6 6 -1 11
2 17 5 13 3 -3 4 -12 1 -19z m3188 -28 c3 -5 1 -10 -4 -10 -6 0 -11 5 -11 10
0 6 2 10 4 10 3 0 8 -4 11 -10z m2315 -20 c0 -5 -5 -10 -11 -10 -5 0 -7 5 -4
10 3 6 8 10 11 10 2 0 4 -4 4 -10z m-11170 -15 c0 -8 -4 -15 -10 -15 -5 0 -10
7 -10 15 0 8 5 15 10 15 6 0 10 -7 10 -15z m4281 -12 c-12 -20 -14 -14 -5 12
4 9 9 14 11 11 3 -2 0 -13 -6 -23z m7004 -22 c3 -5 1 -12 -5 -16 -5 -3 -10 1
-10 9 0 18 6 21 15 7z m1772 -83 c-3 -8 -6 -5 -6 6 -1 11 2 17 5 13 3 -3 4
-12 1 -19z m-13100 -20 c-3 -8 -6 -5 -6 6 -1 11 2 17 5 13 3 -3 4 -12 1 -19z
m11250 -10 c-3 -8 -6 -5 -6 6 -1 11 2 17 5 13 3 -3 4 -12 1 -19z m1783 -8 c0
-5 -2 -10 -4 -10 -3 0 -8 5 -11 10 -3 6 -1 10 4 10 6 0 11 -4 11 -10z m-11643
-22 c-3 -8 -6 -5 -6 6 -1 11 2 17 5 13 3 -3 4 -12 1 -19z m11550 -50 c-3 -8
-6 -5 -6 6 -1 11 2 17 5 13 3 -3 4 -12 1 -19z m-11784 -3 c-3 -9 -8 -14 -10
-11 -3 3 -2 9 2 15 9 16 15 13 8 -4z m-46 -17 c-3 -8 -6 -5 -6 6 -1 11 2 17 5
13 3 -3 4 -12 1 -19z m3044 -35 c-12 -20 -14 -14 -5 12 4 9 9 14 11 11 3 -2 0
-13 -6 -23z m-4204 -5 c-3 -8 -6 -5 -6 6 -1 11 2 17 5 13 3 -3 4 -12 1 -19z
m1010 -40 c-3 -8 -6 -5 -6 6 -1 11 2 17 5 13 3 -3 4 -12 1 -19z m-30 -10 c-3
-8 -6 -5 -6 6 -1 11 2 17 5 13 3 -3 4 -12 1 -19z m-1007 -23 c0 -8 -4 -15 -10
-15 -5 0 -10 7 -10 15 0 8 5 15 10 15 6 0 10 -7 10 -15z m960 1 c0 -3 -4 -8
-10 -11 -5 -3 -10 -1 -10 4 0 6 5 11 10 11 6 0 10 -2 10 -4z m-987 -41 c-3 -9
-8 -14 -10 -11 -3 3 -2 9 2 15 9 16 15 13 8 -4z m-16 -47 c-3 -8 -6 -5 -6 6
-1 11 2 17 5 13 3 -3 4 -12 1 -19z m-20 -50 c-3 -8 -6 -5 -6 6 -1 11 2 17 5
13 3 -3 4 -12 1 -19z m-14 -33 c-7 -21 -13 -19 -13 6 0 11 4 18 10 14 5 -3 7
-12 3 -20z m2804 -27 c-3 -8 -6 -5 -6 6 -1 11 2 17 5 13 3 -3 4 -12 1 -19z
m9904 -45 c-12 -20 -14 -14 -5 12 4 9 9 14 11 11 3 -2 0 -13 -6 -23z m-2315
-55 c1 -27 6 -54 12 -61 6 -7 13 -50 17 -97 6 -84 40 -220 54 -220 4 0 8 -15
8 -32 1 -35 14 -119 34 -208 7 -30 13 -82 15 -115 4 -101 13 -149 29 -157 9
-5 14 -22 13 -43 -1 -19 5 -41 12 -49 7 -9 10 -27 8 -41 -3 -14 -1 -25 3 -25
5 0 9 -9 9 -19 0 -11 5 -32 11 -48 6 -15 13 -41 14 -57 2 -17 10 -35 19 -41
24 -18 31 -159 9 -180 -8 -9 -13 -19 -9 -22 6 -6 -39 -33 -56 -33 -5 0 -7 9
-3 19 3 11 1 22 -5 26 -5 3 -10 15 -10 26 0 10 -4 19 -10 19 -5 0 -10 9 -10
19 0 11 -5 23 -10 26 -6 4 -8 10 -5 15 3 5 -20 34 -50 65 -30 32 -55 65 -55
76 0 10 -9 24 -19 31 -11 8 -27 32 -36 55 -9 23 -23 44 -31 47 -8 3 -14 11
-14 19 0 7 -20 35 -45 63 -39 43 -44 53 -40 82 4 23 2 34 -9 38 -8 3 -20 21
-26 40 -6 19 -16 34 -21 34 -5 0 -9 5 -9 12 0 6 -20 29 -45 52 -66 60 -73 66
-85 66 -6 0 -8 5 -5 10 3 6 19 10 36 10 16 0 29 -4 29 -10 0 -15 30 -12 31 3
0 6 5 2 11 -10 12 -25 23 -29 33 -13 3 6 15 10 26 10 42 0 77 59 81 133 2 31
6 57 9 57 9 0 8 53 -1 65 -7 8 -6 206 1 225 1 3 1 26 0 51 -1 32 3 49 13 52 9
4 13 18 12 39 -3 44 1 50 32 46 25 -3 27 -7 28 -50z m2294 22 c0 -5 -2 -10 -4
-10 -3 0 -8 5 -11 10 -3 6 -1 10 4 10 6 0 11 -4 11 -10z m-1040 -4 c0 -3 -4
-8 -10 -11 -5 -3 -10 -1 -10 4 0 6 5 11 10 11 6 0 10 -2 10 -4z m-8720 -16 c0
-5 -5 -10 -11 -10 -5 0 -7 5 -4 10 3 6 8 10 11 10 2 0 4 -4 4 -10z m9737 -12
c-3 -8 -6 -5 -6 6 -1 11 2 17 5 13 3 -3 4 -12 1 -19z m-12725 -40 c-8 -8 -9
-4 -5 13 4 13 8 18 11 10 2 -7 -1 -18 -6 -23z m12704 17 c-1 -8 -5 -17 -8 -21
-5 -4 -4 16 1 34 3 9 9 -1 7 -13z m-9659 -37 c-3 -8 -6 -5 -6 6 -1 11 2 17 5
13 3 -3 4 -12 1 -19z m60 -50 c-3 -8 -6 -5 -6 6 -1 11 2 17 5 13 3 -3 4 -12 1
-19z m31 -39 c-3 -8 -7 -3 -11 10 -4 17 -3 21 5 13 5 -5 8 -16 6 -23z m9453
-22 c-10 -9 -11 -8 -5 6 3 10 9 15 12 12 3 -3 0 -11 -7 -18z m-5086 -27 c3 -5
1 -10 -4 -10 -6 0 -11 5 -11 10 0 6 2 10 4 10 3 0 8 -4 11 -10z m-4288 -32
c-3 -8 -6 -5 -6 6 -1 11 2 17 5 13 3 -3 4 -12 1 -19z m9330 7 c0 -8 -4 -12 -9
-9 -5 3 -6 10 -3 15 9 13 12 11 12 -6z m-26 -38 c-10 -9 -11 -8 -5 6 3 10 9
15 12 12 3 -3 0 -11 -7 -18z m-9254 -9 c-3 -8 -6 -5 -6 6 -1 11 2 17 5 13 3
-3 4 -12 1 -19z m4493 -18 c0 -5 -4 -10 -10 -10 -5 0 -10 5 -10 10 0 6 5 10
10 10 6 0 10 -4 10 -10z m4747 -22 c-3 -8 -6 -5 -6 6 -1 11 2 17 5 13 3 -3 4
-12 1 -19z m-9197 2 c0 -5 -7 -7 -15 -4 -8 4 -15 8 -15 10 0 2 7 4 15 4 8 0
15 -4 15 -10z m8470 -10 c0 -5 -2 -10 -4 -10 -3 0 -8 5 -11 10 -3 6 -1 10 4
10 6 0 11 -4 11 -10z m-11876 -45 c-4 -8 -8 -15 -10 -15 -2 0 -4 7 -4 15 0 8
4 15 10 15 5 0 7 -7 4 -15z m12569 -20 c-3 -9 -8 -14 -10 -11 -3 3 -2 9 2 15
9 16 15 13 8 -4z m-9079 -21 c3 -8 2 -12 -4 -9 -6 3 -10 10 -10 16 0 14 7 11
14 -7z m9038 -30 c-9 -16 -10 -14 -9 8 1 15 6 23 11 18 4 -4 4 -16 -2 -26z
m-8989 -24 c3 -11 1 -18 -4 -14 -5 3 -9 12 -9 20 0 20 7 17 13 -6z m6728 -1
c4 -7 12 -8 18 -5 6 4 18 0 27 -8 8 -9 22 -16 30 -16 8 0 14 -7 14 -15 0 -20
-14 -19 -35 1 -11 11 -25 14 -45 10 -19 -3 -30 -1 -30 5 0 8 -15 9 -45 5 -50
-8 -55 -2 -23 26 24 21 75 19 89 -3z m2243 2 c3 -5 -2 -15 -12 -22 -15 -12
-16 -12 -5 2 7 9 10 19 6 22 -3 4 -4 7 0 7 3 0 8 -4 11 -9z m-43 -68 c-12 -20
-14 -14 -5 12 4 9 9 14 11 11 3 -2 0 -13 -6 -23z m-8884 -25 c-3 -7 -5 -2 -5
12 0 14 2 19 5 13 2 -7 2 -19 0 -25z m20 -40 c-3 -7 -5 -2 -5 12 0 14 2 19 5
13 2 -7 2 -19 0 -25z m8834 9 c-10 -9 -11 -8 -5 6 3 10 9 15 12 12 3 -3 0 -11
-7 -18z m-10051 -7 c0 -5 -4 -10 -10 -10 -5 0 -10 5 -10 10 0 6 5 10 10 10 6
0 10 -4 10 -10z m1247 -25 c0 -8 -4 -12 -9 -9 -5 3 -6 10 -3 15 9 13 12 11 12
-6z m8781 -20 c-1 -14 -6 -25 -11 -25 -5 0 -6 7 -3 16 3 9 6 20 6 25 0 5 2 9
5 9 3 0 4 -11 3 -25z m-8728 -47 c0 -11 -5 -16 -11 -13 -6 4 -8 13 -5 20 2 7
-1 19 -7 26 -10 11 -9 11 6 0 9 -7 17 -22 17 -33z m6531 -31 c20 -5 27 -27 9
-27 -5 0 -10 4 -10 9 0 5 -9 13 -20 16 -12 4 -20 15 -19 28 l0 22 11 -22 c6
-12 19 -23 29 -26z m2142 -28 c-15 -28 -29 -46 -31 -39 -3 7 0 15 5 19 6 3 18
21 27 39 9 17 19 32 22 32 3 0 -7 -23 -23 -51z m-8649 -5 c3 -8 2 -12 -4 -9
-6 3 -10 10 -10 16 0 14 7 11 14 -7z m1259 -34 c-3 -12 -8 -19 -11 -16 -5 6 5
36 12 36 2 0 2 -9 -1 -20z m7348 -43 c-10 -9 -11 -8 -5 6 3 10 9 15 12 12 3
-3 0 -11 -7 -18z m-8525 -22 c17 -16 14 -18 -10 -9 -9 3 -16 10 -16 15 0 13 9
11 26 -6z m8497 -28 c3 -8 -1 -14 -8 -14 -7 0 -11 6 -8 14 3 7 6 13 8 13 2 0
5 -6 8 -13z m-8446 -23 c-7 -7 26 -74 53 -109 14 -18 14 -19 -2 -7 -35 28 -74
122 -50 122 3 0 2 -3 -1 -6z m8423 -54 c-6 -11 -13 -20 -16 -20 -2 0 0 9 6 20
6 11 13 20 16 20 2 0 0 -9 -6 -20z m-2860 -30 c0 -5 -11 -10 -25 -10 -14 0
-25 5 -25 10 0 6 11 10 25 10 14 0 25 -4 25 -10z m-6537 -20 c3 -11 1 -18 -4
-14 -5 3 -9 12 -9 20 0 20 7 17 13 -6z m6612 0 c-3 -5 -10 -10 -16 -10 -5 0
-9 5 -9 10 0 6 7 10 16 10 8 0 12 -4 9 -10z m-4778 -22 c-3 -8 -6 -5 -6 6 -1
11 2 17 5 13 3 -3 4 -12 1 -19z m4633 18 c0 -2 -8 -10 -17 -17 -16 -13 -17
-12 -4 4 13 16 21 21 21 13z m199 -15 c6 -10 7 -21 4 -25 -3 -3 -1 -6 5 -6 7
0 12 -9 12 -20 0 -11 5 -20 10 -20 6 0 10 -7 10 -15 0 -7 6 -18 13 -22 19 -11
51 -62 44 -69 -3 -3 -18 13 -33 35 -14 23 -31 41 -35 41 -5 0 -9 6 -9 13 0 7
-9 18 -19 24 -13 8 -18 19 -14 33 3 11 0 20 -6 20 -6 0 -11 7 -11 15 0 21 17
19 29 -4z m-246 -31 c-3 -11 -8 -20 -12 -20 -4 0 -7 -8 -8 -17 -1 -10 -3 -35
-5 -55 -2 -21 0 -38 5 -38 5 0 6 -12 2 -27 -6 -26 -7 -109 -2 -214 1 -25 7
-52 13 -60 14 -18 34 -90 34 -121 0 -13 8 -33 18 -44 16 -17 38 -104 26 -104
-2 0 -8 19 -15 43 -6 23 -17 49 -25 58 -8 8 -18 40 -24 70 -9 49 -17 73 -40
119 -14 30 -18 326 -5 357 5 10 9 20 9 23 3 10 27 50 30 50 2 0 2 -9 -1 -20z
m-5356 -32 c-3 -8 -6 -5 -6 6 -1 11 2 17 5 13 3 -3 4 -12 1 -19z m300 -25 c-3
-10 -5 -4 -5 12 0 17 2 24 5 18 2 -7 2 -21 0 -30z m360 5 c-3 -8 -6 -5 -6 6
-1 11 2 17 5 13 3 -3 4 -12 1 -19z m-624 -28 c3 -11 2 -18 -3 -15 -4 3 -10 14
-13 25 -3 11 -2 18 3 15 4 -3 10 -14 13 -25z m7854 -2 c-3 -8 -6 -5 -6 6 -1
11 2 17 5 13 3 -3 4 -12 1 -19z m-2387 -3 c0 -8 7 -15 15 -15 16 0 26 -8 93
-70 24 -22 42 -46 40 -52 -3 -7 8 -22 22 -35 17 -14 30 -37 33 -60 4 -22 15
-45 27 -53 11 -8 20 -24 20 -37 0 -12 22 -60 49 -107 35 -61 47 -92 44 -110
-3 -14 -1 -26 5 -26 5 0 13 -16 17 -36 3 -21 12 -46 20 -58 18 -29 8 -177 -14
-199 -6 -6 -11 -20 -11 -32 0 -11 -9 -29 -21 -38 -11 -10 -18 -25 -15 -33 3
-8 1 -14 -4 -14 -6 0 -10 -6 -10 -14 0 -8 -13 -17 -29 -21 -40 -9 -80 -56 -81
-97 -1 -59 -5 -86 -12 -81 -5 2 -8 10 -8 16 0 7 -9 29 -20 50 -11 20 -20 45
-20 54 0 10 -7 31 -15 47 -8 15 -15 43 -15 62 0 18 -4 35 -9 38 -5 4 -12 25
-16 49 -4 23 -12 45 -17 48 -5 3 -11 21 -13 40 -8 68 -14 95 -35 148 -11 30
-19 60 -16 68 3 7 1 13 -4 13 -6 0 -10 13 -10 29 0 16 -4 31 -10 33 -5 2 -11
27 -14 57 -3 29 -10 59 -16 66 -6 8 -13 49 -16 92 -2 43 -7 89 -10 102 -7 30
16 161 28 161 5 0 7 4 3 9 -4 8 9 15 38 20 4 0 7 -6 7 -14z m-4913 -37 c-3 -8
-6 -5 -6 6 -1 11 2 17 5 13 3 -3 4 -12 1 -19z m-553 -4 c3 -8 2 -12 -4 -9 -6
3 -10 10 -10 16 0 14 7 11 14 -7z m7946 -49 c0 -5 -5 -3 -10 5 -5 8 -10 20
-10 25 0 6 5 3 10 -5 5 -8 10 -19 10 -25z m-7423 3 c-3 -8 -6 -5 -6 6 -1 11 2
17 5 13 3 -3 4 -12 1 -19z m-280 -55 c-3 -10 -5 -2 -5 17 0 19 2 27 5 18 2
-10 2 -26 0 -35z m7753 -6 c0 -12 0 -11 -24 28 l-17 30 20 -24 c12 -13 21 -28
21 -34z m76 -26 c-4 -6 -12 -11 -18 -11 -7 0 -7 4 1 13 6 8 9 16 7 19 -1 3 1
2 7 -2 5 -5 6 -13 3 -19z m-53 -1 c3 -11 1 -18 -4 -14 -5 3 -9 12 -9 20 0 20
7 17 13 -6z m-7926 -22 c-3 -8 -6 -5 -6 6 -1 11 2 17 5 13 3 -3 4 -12 1 -19z
m261 -88 c-7 -10 -14 -17 -17 -15 -4 4 18 35 25 35 2 0 -1 -9 -8 -20z m-127
-37 c-8 -15 -10 -15 -11 -2 0 17 10 32 18 25 2 -3 -1 -13 -7 -23z m-61 -46 c0
-12 0 -11 -24 28 l-17 30 20 -24 c12 -13 21 -28 21 -34z m6610 -119 c0 -11 5
-29 11 -41 10 -18 9 -20 -2 -9 -14 13 -39 85 -39 112 0 8 7 2 15 -14 8 -15 15
-37 15 -48z m-1367 -185 c-2 -6 3 -25 11 -42 23 -43 19 -53 -4 -11 -11 19 -19
51 -19 70 0 28 2 31 8 15 5 -11 6 -25 4 -32z m4207 -403 c0 -5 7 -10 15 -10 8
0 12 -6 10 -12 -2 -7 4 -27 13 -44 9 -17 25 -48 36 -70 10 -21 31 -63 45 -93
14 -29 45 -74 68 -100 24 -25 43 -52 43 -58 0 -7 3 -13 8 -13 4 0 19 -10 33
-23 15 -12 39 -31 53 -43 l27 -21 -62 -93 c-33 -51 -104 -138 -158 -193 l-97
-100 -16 84 c-21 111 -46 253 -54 309 -3 25 -12 59 -21 75 -8 17 -16 54 -18
83 -3 29 -8 58 -11 64 -11 17 -14 198 -4 198 6 0 10 7 10 15 0 8 6 15 14 15 8
0 18 9 21 20 6 20 45 29 45 10z m-11580 -100 c0 -5 7 -10 16 -10 8 0 13 -4 9
-9 -3 -5 1 -15 8 -23 7 -7 18 -25 24 -40 7 -16 17 -28 23 -28 5 0 10 -6 10
-14 0 -16 25 -67 38 -75 9 -7 53 -94 56 -113 1 -7 7 -22 14 -34 6 -11 16 -59
22 -105 5 -46 14 -108 19 -138 l9 -54 -19 24 c-83 104 -211 350 -268 512 -40
113 -39 117 4 117 19 0 35 -4 35 -10z m11430 -93 c6 -39 22 -125 36 -190 15
-65 24 -120 21 -123 -2 -2 -10 24 -17 58 -7 35 -17 65 -20 68 -13 9 -39 144
-30 150 5 3 4 29 -4 63 -7 31 -10 54 -6 52 5 -3 13 -38 20 -78z"/>
<path d="M9863 17021 c-65 -22 -136 -68 -127 -82 3 -6 17 -9 30 -6 19 3 24 0
24 -17 1 -65 38 -90 123 -82 63 6 137 69 137 116 0 20 -53 70 -75 70 -13 0
-27 5 -30 10 -8 14 -22 12 -82 -9z"/>
<path d="M7550 15806 c0 -7 12 -21 26 -31 l26 -17 -23 31 c-26 35 -29 37 -29
17z"/>
<path d="M8090 15791 c0 -19 28 -31 51 -23 22 9 22 9 -11 20 -40 14 -40 14
-40 3z"/>
<path d="M11370 15498 c1 -16 129 -92 138 -83 9 8 -41 50 -90 76 -44 22 -48
23 -48 7z"/>
<path d="M11125 14721 c-3 -6 14 -20 37 -32 56 -29 145 -121 192 -198 35 -57
56 -76 56 -50 0 20 -73 132 -114 178 -66 71 -156 125 -171 102z"/>
<path d="M9110 14510 c0 -12 68 -55 124 -79 55 -24 259 -76 374 -95 162 -28
364 -83 442 -120 42 -20 108 -65 150 -101 41 -36 78 -65 83 -65 42 0 -83 138
-170 187 -63 35 -311 113 -360 113 -27 0 -342 64 -428 86 -33 9 -92 32 -132
50 -78 37 -83 39 -83 24z"/>
<path d="M9010 14490 c0 -24 74 -89 139 -122 l69 -36 -76 -37 c-169 -84 -317
-297 -325 -468 -2 -45 -2 -45 -44 -52 -63 -9 -52 -22 25 -27 71 -5 107 -21
202 -87 70 -48 178 -93 300 -123 81 -20 120 -23 270 -23 160 0 184 3 272 27
145 41 255 99 392 210 33 26 66 48 74 48 21 0 56 21 45 29 -5 3 -14 25 -21 48
-29 98 -143 208 -288 278 -95 46 -331 118 -444 136 -36 5 -101 19 -145 29 -44
11 -104 24 -133 30 -67 12 -184 66 -245 113 -50 38 -67 45 -67 27z m389 -205
c97 -23 99 -26 42 -63 -56 -37 -111 -105 -111 -138 0 -29 16 -40 75 -55 63
-15 74 -25 38 -33 -15 -4 -47 -16 -70 -27 -40 -20 -43 -23 -43 -62 0 -24 9
-56 20 -74 l20 -33 -30 0 c-16 0 -131 -5 -256 -11 -124 -6 -228 -9 -230 -6
-10 10 27 144 56 203 31 64 105 144 181 196 49 33 217 118 233 118 6 0 40 -7
75 -15z m738 -249 c65 -48 98 -86 132 -153 l20 -41 -157 -4 c-86 -2 -159 -2
-161 -1 -2 1 9 17 24 35 41 48 65 107 65 161 0 26 4 47 8 47 4 0 35 -20 69
-44z m113 -230 c0 -5 -90 -71 -150 -110 -75 -49 -210 -106 -300 -128 -169 -41
-448 -19 -640 52 -81 29 -220 111 -220 129 0 4 135 11 299 15 165 4 373 12
463 17 90 6 235 14 323 18 88 4 175 8 193 9 17 1 32 0 32 -2z"/>
<path d="M7030 14395 c-34 -36 -128 -86 -250 -133 -100 -38 -164 -58 -490
-152 -203 -59 -372 -143 -458 -228 -61 -61 -99 -123 -87 -143 4 -5 48 33 98
84 144 145 286 212 632 297 72 18 163 43 204 56 40 13 78 24 83 24 6 0 56 22
113 49 102 50 195 124 195 156 0 22 -13 19 -40 -10z"/>
<path d="M7110 14348 c-75 -87 -207 -154 -445 -227 -316 -97 -495 -157 -575
-197 -79 -38 -183 -111 -238 -166 -33 -32 -72 -112 -72 -146 0 -28 5 -31 108
-71 135 -52 146 -55 327 -93 137 -28 167 -31 345 -32 248 -1 286 8 372 94 65
66 122 171 116 217 -3 25 -7 28 -45 31 l-41 3 5 99 c5 81 2 115 -17 191 -13
56 -18 95 -12 97 5 1 40 24 77 50 75 51 116 97 140 155 21 50 1 48 -45 -5z
m-207 -283 c18 -44 21 -71 22 -220 l0 -170 -60 -17 c-89 -25 -97 -24 -80 8 20
38 28 135 16 180 -12 45 -77 128 -128 162 -19 13 -32 27 -28 30 9 9 218 80
229 78 5 -1 18 -24 29 -51z m-683 -316 l29 -22 -22 -18 c-23 -18 -23 -19 19
-123 7 -19 3 -19 -132 -12 -139 7 -276 25 -289 38 -8 8 41 81 81 121 41 42
159 117 223 143 l56 23 3 -65 c3 -57 6 -66 32 -85z m761 -39 c-21 -18 -41 -26
-41 -16 0 21 16 36 39 36 l26 -1 -24 -19z m-14 -102 c-52 -75 -117 -122 -189
-138 -95 -21 -273 -23 -418 -6 -154 18 -414 76 -411 91 1 6 16 9 34 8 226 -13
391 -14 507 -4 162 14 363 53 439 85 31 13 62 24 69 25 6 0 -7 -27 -31 -61z"/>
<path d="M7326 14088 c12 -332 -40 -624 -153 -858 -98 -206 -128 -260 -208
-380 -141 -212 -230 -305 -365 -387 -84 -50 -105 -89 -104 -188 2 -121 69
-247 204 -381 l71 -72 -20 -38 c-14 -25 -21 -57 -21 -91 0 -44 5 -59 35 -98
l36 -46 -16 -51 c-19 -66 -19 -108 1 -136 32 -45 105 -20 200 70 31 29 33 30
88 18 31 -6 56 -16 56 -21 0 -15 91 -109 122 -125 31 -16 86 -18 107 -5 10 7
28 0 58 -20 97 -67 184 -88 279 -69 113 24 197 80 249 169 29 48 32 51 74 51
81 0 131 51 182 183 12 31 25 57 29 57 4 0 24 12 46 26 36 25 41 25 93 15 68
-14 127 -14 152 -1 31 17 24 65 -16 120 -32 43 -34 50 -24 79 6 17 9 43 7 56
-3 16 0 26 11 30 8 3 76 1 150 -6 171 -15 246 -8 327 30 124 58 197 166 214
314 6 45 6 85 1 91 -5 6 -12 27 -16 46 -9 44 -84 156 -150 224 -27 28 -41 44
-30 36 19 -14 19 -14 6 2 -7 10 -17 16 -21 13 -5 -3 -30 12 -57 33 -128 102
-230 144 -348 146 -84 1 -164 -19 -147 -36 6 -6 23 -6 48 1 169 47 431 -89
514 -267 29 -61 20 -93 -32 -106 -32 -8 -45 -5 -90 19 -188 101 -257 120 -408
112 -206 -12 -318 -69 -527 -268 -154 -147 -224 -185 -396 -220 -107 -21 -110
-21 -175 -4 -82 23 -299 129 -410 201 -107 70 -149 91 -197 99 -22 4 -46 9
-54 11 -9 3 17 36 76 97 145 149 350 474 442 699 99 243 134 431 135 723 1
207 -6 285 -24 285 -6 0 -7 -71 -4 -182z m1788 -1573 c54 -106 53 -202 -4
-315 -32 -62 -76 -108 -134 -139 -70 -37 -137 -44 -331 -37 l-179 7 -36 33
c-19 17 -50 38 -68 45 -17 7 -32 16 -32 20 2 14 110 92 161 115 38 18 71 26
112 26 31 0 57 4 57 9 0 21 -96 46 -176 45 -69 0 -90 -5 -148 -32 -90 -42
-133 -78 -219 -181 -39 -47 -100 -114 -135 -149 -67 -65 -78 -94 -18 -48 46
35 226 118 226 104 0 -20 -79 -84 -142 -115 -125 -61 -448 -143 -564 -143
l-32 0 -16 88 c-9 48 -16 124 -16 169 l0 82 38 6 c261 43 321 74 537 275 148
138 233 188 367 215 157 31 267 16 414 -57 112 -55 167 -67 215 -48 41 17 62
65 49 111 l-10 33 29 -35 c17 -18 41 -56 55 -84z m-2319 -109 c28 -12 88 -48
135 -78 159 -103 397 -218 450 -218 20 0 21 -4 15 -57 -6 -53 7 -222 21 -280
l6 -23 -155 0 -155 0 -28 38 c-51 68 -148 164 -209 207 -78 54 -83 57 -89 47
-3 -5 22 -30 55 -56 l60 -47 -42 -32 c-23 -18 -48 -36 -55 -42 -10 -7 -29 6
-74 50 -188 185 -254 414 -142 490 50 34 136 35 207 1z m1510 -314 c50 -25
103 -72 115 -103 17 -40 6 -73 -43 -126 -43 -48 -187 -147 -196 -136 -4 3 -1
8 6 10 30 11 163 106 175 126 13 19 13 27 1 56 l-14 34 -42 -40 c-156 -150
-413 -250 -792 -309 -83 -13 -142 -15 -240 -10 -154 7 -238 24 -335 66 -39 17
-75 28 -80 25 -6 -4 -4 -18 6 -36 14 -27 55 -53 103 -65 186 -44 356 -64 363
-43 5 15 219 38 333 36 93 -2 102 0 135 24 53 39 320 132 349 121 20 -7 15
-11 -48 -40 -38 -18 -76 -32 -83 -32 -8 0 -18 -4 -23 -9 -9 -8 -122 -44 -220
-70 -107 -29 -302 -51 -448 -51 -192 0 -303 17 -412 65 -118 52 -146 123 -82
206 37 49 51 54 55 20 21 -147 336 -181 795 -87 297 62 503 158 551 260 19 39
21 88 5 118 -10 18 -8 19 13 13 12 -4 37 -14 53 -23z m-1263 -320 c-16 -5 -70
26 -82 47 -5 11 -10 30 -10 43 1 20 7 16 52 -32 28 -30 46 -56 40 -58z m1423
28 c24 -46 20 -50 -47 -50 l-62 0 39 40 c21 22 43 40 47 40 4 0 14 -13 23 -30z
m-327 -208 c-62 -101 -72 -107 -147 -86 -34 9 -61 19 -61 23 0 5 174 81 228
100 2 1 -7 -16 -20 -37z m-1226 -94 c32 -13 58 -26 58 -30 0 -9 -98 -68 -114
-68 -8 0 -16 6 -18 13 -6 17 3 107 10 107 3 0 32 -10 64 -22z m963 -25 c36
-15 65 -29 65 -32 0 -3 -20 -31 -44 -63 -48 -60 -133 -110 -208 -124 l-37 -6
-48 96 c-37 75 -45 99 -35 105 7 4 52 14 100 21 48 7 94 16 102 21 23 13 35
11 105 -18z m-308 -115 c26 -51 49 -96 51 -100 12 -25 -114 14 -166 52 l-42
30 36 49 c19 28 43 52 52 54 9 3 18 5 19 6 2 0 24 -41 50 -91z m-147 72 c0
-13 -89 -90 -103 -90 -16 0 -97 52 -121 78 -16 19 -13 19 104 19 66 1 120 -3
120 -7z"/>
<path d="M6875 11450 c3 -5 8 -10 11 -10 2 0 4 5 4 10 0 6 -5 10 -11 10 -5 0
-7 -4 -4 -10z"/>
<path d="M9852 13483 c-10 -4 -9 -10 6 -27 12 -13 22 -43 26 -78 8 -75 13 -86
47 -104 36 -18 86 -11 122 19 l27 22 -18 49 c-14 39 -27 55 -67 82 -48 31
-116 49 -143 37z m169 -114 c14 -29 16 -39 6 -47 -54 -43 -107 -4 -107 78 l0
51 41 -23 c24 -13 49 -38 60 -59z"/>
<path d="M6258 13366 c-76 -27 -112 -63 -124 -124 -5 -26 -1 -36 25 -62 25
-26 37 -31 68 -28 36 3 38 6 58 60 11 31 32 72 48 89 34 41 34 57 1 69 -31 12
-30 12 -76 -4z m67 -16 c4 -6 -7 -23 -24 -39 -38 -36 -52 -72 -44 -113 l6 -31
-38 6 c-56 9 -67 24 -53 71 20 63 131 141 153 106z"/>
<path d="M8560 13091 c0 -5 26 -17 58 -26 142 -42 263 -128 457 -327 450 -462
603 -651 674 -838 55 -144 87 -359 78 -523 -5 -81 -4 -108 4 -100 18 18 23
222 9 341 -39 343 -140 525 -503 905 -362 381 -447 458 -572 517 -112 53 -205
76 -205 51z"/>
<path d="M6595 12568 c-167 -99 -314 -319 -375 -563 -33 -127 -40 -421 -11
-389 5 5 11 72 14 149 6 171 35 290 101 426 78 160 184 286 319 378 26 17 47
34 47 36 0 13 -32 1 -95 -37z"/>
<path d="M5890 11000 c0 -5 5 -10 11 -10 5 0 7 5 4 10 -3 6 -8 10 -11 10 -2 0
-4 -4 -4 -10z"/>
<path d="M13090 12921 c0 -5 25 -28 56 -51 106 -80 210 -201 299 -347 41 -68
50 -78 35 -37 -31 81 -187 301 -251 354 -51 42 -121 90 -131 90 -5 0 -8 -4 -8
-9z"/>
<path d="M12482 12583 c-13 -32 -6 -166 12 -246 10 -43 19 -77 21 -75 1 2 -1
59 -5 127 -4 69 -5 144 -2 168 5 44 -11 61 -26 26z"/>
<path d="M13906 12268 c-3 -24 -13 -137 -21 -251 -9 -119 -24 -241 -35 -285
-31 -123 -107 -263 -196 -362 -116 -130 -228 -310 -205 -333 7 -7 16 0 28 22
45 81 117 182 178 251 166 186 235 343 254 583 15 184 22 417 12 417 -5 0 -11
-19 -15 -42z"/>
<path d="M13792 12162 c-3 -36 -60 -306 -78 -370 -43 -148 -100 -251 -206
-373 -26 -30 -48 -59 -48 -62 0 -37 125 83 184 177 44 69 79 160 109 286 30
119 51 278 44 330 -2 19 -5 25 -5 12z"/>
<path d="M12515 12023 c12 -199 10 -272 -8 -316 -19 -43 -5 -41 18 3 32 61 37
123 21 219 -9 50 -16 123 -16 161 0 46 -4 70 -11 70 -9 0 -10 -36 -4 -137z"/>
<path d="M12736 11781 c-13 -21 -9 -150 6 -191 7 -19 40 -80 72 -134 101 -172
111 -198 111 -303 0 -103 16 -125 36 -50 26 95 -12 216 -116 370 -19 28 -33
52 -32 54 4 3 132 -32 291 -81 110 -34 143 -39 120 -17 -17 16 -270 94 -407
125 -38 9 -59 60 -66 161 -4 54 -9 75 -15 66z"/>
<path d="M12992 11598 c3 -7 42 -21 89 -30 281 -59 283 -60 333 -210 3 -10 11
-18 17 -18 18 0 4 64 -26 127 -35 70 -67 86 -240 118 -155 28 -178 30 -173 13z"/>
</g>
</svg>
